<svg xmlns="http://www.w3.org/2000/svg" xml:space="preserve" viewBox="0 0 5000 1600"><path fill="#FEFEFE" d="M3874 1602H2V2h5000v1600H3874m-1318-239-11-1-3 6a34 34 0 0 0-35-10c-17 4-31 19-33 36-2 20 7 37 23 46 17 8 32 6 46-8 8 15 23 18 36 8 5-4 9-10 11-17 5-15 5-30 1-46-6-21-19-36-40-43-9-3-18-5-27-5-36-2-71 18-77 60-4 30 5 60 38 74 11 5 23 7 34 7 11-1 22-3 32-10l-8-14c-11 5-22 5-33 4-15-2-28-8-37-21-16-25-6-61 20-75 15-8 30-8 45-5 8 2 15 4 20 12l-2 2m205-1051 44 111 73 183 107 270c3 10 4 10 15 10h117c9 0 13-4 13-13l-4-14-39-98-42-106-40-103-44-108-58-149-29-72-23-58c-2-7-8-11-15-11h-168c-8 0-13 3-15 10l-3 7-71 179-94 236-44 111-47 118-22 56c-4 10 0 16 11 17h519l9-1c8-1 11-7 8-14l-5-14c-15-38-31-75-45-113-4-9-9-12-18-12h-259l3-9 17-43 71-181a48636 48636 0 0 1 78-189m2039 931 2 4V954H204v287l4 1h4578l14 1m-859-993h143c9 0 12-4 12-12l1-5v-66c0-7-3-11-10-13h-342c-40 0-75 15-105 42-38 34-56 77-56 128v377l2 38c2 28 12 53 28 76 12 19 28 34 46 46 25 16 52 26 82 27h338c13 0 16-4 17-18v-58c0-18-3-21-22-21l-320 1c-18 0-33-5-46-15a65 65 0 0 1-27-48l-1-34V329c0-13 0-26 6-38 14-27 36-40 66-40l188-1M1137 792H883c-33 1-70-29-70-69V318c0-31 27-63 59-66l36-1 295-1c15 0 17-2 18-17v-53l-1-15c0-7-3-10-10-11H880c-17 0-33 2-49 7-67 24-115 84-115 162v396l3 33c2 16 8 31 16 46a162 162 0 0 0 149 91l317-1h7c9 0 12-3 12-12l1-16-1-54c0-9-4-13-13-14h-70m796-530c13-10 27-11 43-11l315-1c14 0 17-3 17-17v-62c0-14-3-17-17-17h-322c-18 0-34 2-51 7-63 22-114 82-114 159v402a164 164 0 0 0 59 127c29 25 62 39 101 39h329c11 0 15-4 15-15v-66c0-10-4-14-15-15h-321c-6 0-12 0-18-2-32-8-53-36-53-69V321c0-25 10-45 32-59M635 888h30c5 0 9 0 12-6 2-5 1-10-3-14l-10-11-128-143-98-108-12-14h50l27-2c34-6 64-20 89-45 33-32 51-69 52-115V314a166 166 0 0 0-74-132c-26-18-56-28-88-28H213c-10 1-13 4-13 14v70c0 10 3 13 14 14h268c36 1 66 32 66 68l-1 106a69 69 0 0 1-72 69H244l-10 1c-10-1-13 10-9 17l7 9 26 27 127 143 66 73 103 114c7 7 13 10 22 10l60-1m2608-394h-142c-10 2-14 11-8 19l7 8 73 81 82 91 92 102 77 86c4 4 8 7 14 7h95c5 0 10-1 12-7s1-11-3-15l-14-14-86-95-59-67-78-86-11-14h39c15 0 29 0 43-2 36-7 66-23 91-50 29-31 45-69 45-112V312a165 165 0 0 0-57-117c-29-26-64-41-103-41h-265c-6 0-9 3-10 9l-1 7v64l1 6c1 7 4 10 11 10l7 1 245-1 17 2c31 3 58 32 59 66l-1 108a68 68 0 0 1-71 68h-101m1074 76h265v299c0 15 4 19 18 19h60c16 0 19-3 19-19V173l-1-8c0-7-3-10-10-11h-65c-19 0-21 2-21 21v297h-282c-11 1-16 5-16 16v67c0 9 5 14 15 15h18m-2590-42a165 165 0 0 0-121-59h-155l-27-1c-31-1-58-31-58-63v-82c0-13-4-17-17-17h-68c-8 1-13 5-13 14 1 32 0 64 2 96 1 34 14 65 37 91 32 39 74 59 124 59l169 1c19 0 35 6 48 18 16 15 24 34 24 56v82c0 11 4 15 15 15h63c14 0 18-4 18-18v-97c-4-35-17-67-41-95m2503-285v-73c0-13-4-16-16-16h-63c-14 0-17 4-17 17v699c0 14 3 18 18 18h57c18 0 21-3 21-21V243m581 468V333c0-14-4-17-18-17h-61c-13 0-18 5-18 18v539c1 10 5 15 15 15h68c9 0 13-4 14-13V711M1257 829v46c0 6 2 11 8 13h9a354033 354033 0 0 0 354-1 167 167 0 0 0 113-76c6-10 1-18-10-19h-461c-8 1-12 5-12 13l-1 24m75-640c-15 12-28 26-38 42-6 11-2 20 11 21h448c8-1 13-6 13-14v-70c0-8-3-11-10-13l-10-1h-317c-12 1-25 2-37 5-22 5-41 16-60 30m849 380h107l10-1c7-1 10-4 10-11v-72c0-7-3-10-10-12l-8-1h-316c-15 0-20 5-20 19v56c0 20 2 22 22 22h205M867 488v60c0 17 2 21 21 21h320c9-1 12-4 12-13v-69c0-10-4-14-14-15H881c-9 1-12 4-14 16m3847-237v8c0 14 4 17 18 17h63c13 0 16-3 16-16v-91c0-12-4-15-16-15h-65c-11 0-15 4-16 15v82M1336 1363c-1-7 1-13 7-17 9-7 19-7 30-6 9 2 16 6 18 15h22c0-13-6-23-18-28-19-10-39-10-59-2-15 7-23 18-24 35v45c1 12 6 22 16 30 19 14 52 14 71 0 21-16 21-48-2-62-12-8-26-10-40-7-7 1-14 5-21 8v-11m-38 49c1-13-1-25-11-35a57 57 0 0 0-56-8c-4 1-7 3-11 6v-16c0-6 2-10 7-13 9-7 19-7 30-6 9 2 16 6 18 15h22c0-14-6-23-18-28-19-10-39-10-59-2-15 7-23 18-24 35v45c1 16 9 27 23 34 17 8 34 9 51 3 14-5 24-14 28-30m-591-87-13-4c-18-3-36-1-51 11a38 38 0 0 0-4 53c14 16 45 20 63 9l6-4c1 23-2 30-16 34-16 5-32 0-40-14h-22c1 15 8 24 21 30 17 7 35 8 52 2 19-7 28-19 29-39v-39c0-18-7-30-25-39m1134 42c-17-5-33-4-48 8-2-21 1-29 16-34 16-5 31 0 40 14h21c0-11-5-20-14-26a71 71 0 0 0-71 1c-9 6-15 15-15 26v52c0 11 6 20 14 26 20 15 52 15 72 1 7-6 12-13 14-22 4-18-3-38-29-46m-90-26c-4-4-7-10-12-12a67 67 0 0 0-69 0c-10 6-16 15-16 27v52c0 11 6 20 14 26 20 15 53 15 72 0 21-15 21-48-2-61-14-8-29-11-44-7l-18 9v-14c0-8 4-14 11-17 17-9 36-4 46 12h22l-4-15m432 45 5-6c10-8 23-4 26 7l1 22v34h21v-54c-1-15-7-26-22-31-15-4-29-3-40 10l-2 4c-10-17-31-23-49-7l-2-7h-19c-2 27-1 78 1 85h20v-40l1-12c2-10 8-15 18-15 9 0 15 6 16 16l1 26v25h21v-41l3-16m-1199 59c16 2 31 0 45-9 17-9 25-39 2-53l-3-2c19-15 19-38 0-51a66 66 0 0 0-70 0c-8 6-13 15-12 25h19l13-10c9-5 19-4 28-2l8 4c8 7 7 17-3 21-5 2-11 3-16 3l-19 1v18h19l15 2c6 2 10 6 11 13 0 7-3 12-8 15-17 10-38 4-48-11h-21c0 11 4 20 13 27 8 5 16 8 27 9m1277-17c19 24 41 24 65 7l2 8h19v-85h-19l-2 9-3-2c-24-20-60-8-67 22-4 14-3 27 5 41m1796-70h-11l-2 8-3-1c-25-20-61-8-68 23v25c4 21 19 32 39 33 13 1 23-3 32-12l2 9h19v-85h-8m-1321 88c14 0 28-3 40-14l-7-7-6-6c-24 13-46 8-48-12h65c7-31-15-56-47-53l-6 2c-19 3-33 17-35 36-2 23 7 42 26 50l9 2 9 2m167-38 65-1c7-31-15-56-46-53l-7 2c-19 3-33 17-35 36-3 23 7 43 26 50 17 6 33 5 49-4l8-5-12-14c-5 2-9 5-14 6-16 5-29-1-34-17m807 12c-3-2-5 1-7 2-11 5-21 6-32 2-7-3-11-8-11-16h65c6-26-7-56-46-53-21 1-36 12-40 30-7 26 2 59 43 61 14 0 28-3 40-15l-12-11m560-37c4-4 10-7 16-7 10 1 18 7 18 18l1 40v9h21v-54l-2-7c-4-19-20-29-40-25-7 2-13 6-20 10v-45h-21v121h21v-41c0-6 1-12 6-19m-972-48v108h22v-46c1-12 10-21 22-21 11 1 18 8 19 21v46h21v-52l-2-9c-6-23-32-33-52-20l-8 6v-46h-22v13m582 20c-31-4-53 12-55 41-2 21 9 40 27 46 17 6 33 4 49-4l7-5-12-14c-25 13-45 8-48-11h65c4-29-7-47-33-53m-760 8v-5h-19l-2 8c-7-4-13-8-20-10-30-4-50 14-52 39l1 14c1 16 9 28 24 34 16 6 31 5 45-7l2-1 2 8h19v-80m-1991-19h25l-49 99h26l53-105c3-5 2-10 1-16h-89v22h33m373-22h-84v22h58l-49 99h26l4-8 43-84 7-15c1-5 3-10-5-14m405 22h26l-49 99h26l2-4 50-100c3-5 3-11 2-17h-89v22h32m-308 24-37 75h26l4-8 47-93c3-6 5-12 2-20-13-1-82-1-88 1v21h58l-12 24m-745-24h51l-49 99h26l2-2 51-102c3-6 2-11 1-17h-90v17c0 4 2 5 8 5m1944 30c-5 16 0 26 15 31l15 3 13 2c4 1 7 3 7 7 1 4-1 7-5 8-5 1-11 3-16 2l-25-9-9 12c13 16 40 21 59 13 12-5 19-16 18-27-1-12-8-19-22-22l-19-3c-8-1-12-4-12-8 0-5 5-8 12-8 9-1 17 1 25 7l12-14c-16-14-32-15-49-10-8 2-15 6-19 16m968 72h20c8-1 16-4 21-10 13-13 9-34-9-40-5-3-12-3-18-4-4-1-9-1-13-3l-5-6c-1-4 2-7 6-7h18c4 0 9 3 14 5l10-13c-11-14-42-16-59-5-15 10-14 33 3 40 6 3 12 4 19 5 4 1 10 1 14 3 3 0 6 3 6 5 0 3-2 8-4 8-5 2-11 4-15 3l-27-9-9 13c7 8 16 12 28 15m-2980-41v-83h-42v22h18v81h-17v19h57v-20h-16v-19m2440 32c16 13 49 13 61-4l-12-14c-17 9-31 8-39-2-7-9-7-23 0-32 8-11 20-12 36-5l14-11c-12-18-50-18-66 1l-5 8c-9 16-8 45 11 59m929-29c3 20 14 33 33 37 17 4 32 1 44-11l-12-15c-16 9-29 8-38-1-8-8-9-23-2-32 3-4 8-8 13-9 9-3 17-1 23 3l14-12c-11-15-38-15-52-8-11 6-19 14-22 26l-1 22m-2137-57v107h20c2-12 1-139-1-145h-19v38m1484 6v-44h-20v144h20v-100m-321-1c-8 0-15 3-20 11l-3-9h-19v85h21v-45c0-13 8-20 21-20l17 3 8-17c-7-6-14-8-25-8m414 3-9 7-2-8h-19c-2 23-1 78 1 85h20v-45c0-13 8-20 20-20l18 3 8-17c-11-9-23-10-37-5m-975 66v18h21v-45c1-14 8-21 22-20l16 3 8-18c-16-11-31-11-46 3l-2-8h-19v67m1464-12v30h21v-45c0-13 8-20 21-20l17 3 8-18c-16-10-31-11-46 3l-2-8h-19v55m-1678 20v10h21v-121h-21v111m-1861-45c0 4 3 4 5 4h21v26h21v-26h25v-19h-25v-25h-21v26h-26v14m3799-3v58h22v-85h-22v27m-944 14v44h20v-85h-20v41m-1027 45h13v-86h-20v82c0 4 2 4 7 4m1995-109-2-8c-2-5-8-8-13-6-6 1-10 6-11 12 0 5 4 10 9 12 7 2 12 0 17-10m-1371 85-6 2c-5 3-7 9-5 15 1 5 6 8 11 8 6 0 11-3 13-8 1-6 0-11-5-15l-8-2m-626-98-5 3c-3 5-3 12 0 16 4 4 11 6 17 3 5-3 7-9 5-15s-7-9-17-7m1577 121 5-6c2-4 1-10-3-14-3-3-9-4-14-1-5 2-7 6-7 12 1 8 7 12 19 9m-525-110-2-6c-2-5-8-8-14-6-6 1-10 6-9 13 0 6 4 10 10 11 7 1 12-2 15-12z"/><path fill="#A50202" d="M204 1240V954h4598v142a11272 11272 0 0 1-2 146H219l-12-1-3-1m109-198v125h26v-45h14c7 0 11 2 16 8l29 33 7 5h26l1-2-40-46 10-3c11-5 18-13 21-24 10-29-10-58-41-59l-63-1-6 1v8m3229 84 4-3 13-1c5 0 9 2 12 6a1421 1421 0 0 0 37 39l28 1v-2l-40-45 6-3c22-7 28-27 28-42-2-24-19-41-43-42l-66-1-4 1v133h25v-41m-744 31 8 8c1 1 3 3 5 3h29l-21-24-21-24 11-4c9-3 15-10 19-18 12-28-4-61-35-63-24-3-48-1-73-1l-1 1v132h25v-45h15c7 0 11 2 16 7l23 28m-1841-56v66h25l1-45h15c6 0 10 2 14 7a1032 1032 0 0 0 37 39h26l1-2-40-46c4-1 6-1 8-3 6-3 13-7 17-12 16-21 10-57-19-68-6-2-12-3-19-3l-60-1-6 1v67m2893 44v22h26v-45h15c6 0 11 2 14 7l30 34c2 2 4 4 6 4l30 1-42-47 5-3c25-6 32-31 27-52-5-19-21-31-40-32l-67-1-4 1v111m-2220 2v20h26v-45h15c6 0 11 2 14 7l30 34c2 2 4 4 6 4l30 1-42-48c3 0 4-1 5-2 25-6 32-31 27-52-5-19-21-31-40-32l-67-1-4 1v113m2490 0c8-10 13-21 15-33 7-45-19-81-65-80h-54c-1 33-1 126 2 134l57-1c17 0 32-6 45-20m-948-106c-7-11-17-7-27-7-2 19-1 126 1 133h24v-65c1-7-1-14 2-23l68 88h16v-133h-25v40c0 13 0 26-2 39l-57-72m1429 127h17v-90l8 10c19 24 38 47 56 72 6 8 13 9 22 7v-133h-25v79c-4-2-6-5-8-7l-52-66-9-6h-17v133l8 1m-774-92a64 64 0 0 0-55-45c-32-4-63 9-75 45-5 14-6 30-2 45 7 25 22 42 48 47 8 2 17 2 25 2 27-1 49-16 58-41 6-17 7-34 1-53m-1564 66h-33v-29h72v-25h-71v-30h74v-24h-100v133c16 2 93 1 100-1v-24h-42m604-108h-18v133h100v-25h-74v-30h71v-24h-71v-30h74v-24h-82m555 85 1-7h71v-24h-71v-30h74v-24c-23-2-93-1-100 1v132h100v-25h-75v-23m1117-7 8 1v16c0 6-3 9-7 12-14 7-28 7-42 2-14-4-22-14-26-27-3-13-2-26 4-38 8-18 27-28 46-25 11 2 20 7 29 13l16-16a73 73 0 0 0-69-19c-22 5-38 19-47 40-6 16-7 33-3 50 5 25 21 41 46 47 9 2 18 2 27 2 17 0 32-7 45-19 3-3 4-7 4-11v-50h-57v22h26m-3840 56h92v-26h-74v-30h72v-24h-72v-30h74v-24h-99v129c-1 5 2 5 7 5m3553-21c1-5-3-5-7-5h-68v-30h72v-24h-72v-30h75v-24h-100v133h100v-20m-3716-35 3-2 1-22h-73v-30h75v-24H442c-2 37-1 126 1 133h98v-25h-74v-30h69m708-26v-52h-24c-2 21-2 126 0 133h25v-52h66v52h24v-133h-25v56h-60c-2 0-4-1-6-4m-414 73 7-16h70l12 24h27l-60-133h-28l-60 134h27l5-9m733-17h17l11 25h28l-59-133h-29c-26 55-58 127-58 133h26l12-25h52m-966-38 19 4c7 2 15 3 21 6 7 2 11 7 11 14s-4 12-11 15c-2 2-5 3-8 3-20 3-38 0-50-19l-21 10c6 15 15 24 29 29 16 6 32 6 49 3l19-8c14-8 19-21 18-36-1-16-9-27-24-33-8-3-16-4-25-6l-26-6c-10-3-12-15-4-22 2-2 6-5 9-5 6-2 13-2 20-2 11 1 19 7 27 14l19-10c-4-10-11-16-20-20-23-10-45-9-67 2-12 7-18 18-18 32s7 25 20 31c3 2 7 3 13 4m3785 34c6-27-8-43-31-49l-17-3-23-5c-6-2-11-5-11-12-1-8 3-13 10-15 6-2 14-3 21-3 11 0 21 6 29 14l18-10c-4-9-8-15-17-19a74 74 0 0 0-71 2c-7 4-12 11-14 19-7 19 2 38 22 45 8 3 18 4 27 6l23 6c6 2 10 7 10 15 0 7-4 12-10 14-8 2-17 4-25 4-14 0-27-6-34-21l-21 11c6 15 16 25 30 29 18 6 36 6 54 1 14-4 25-12 30-29m-2464-79v-25h-26c-2 36-1 126 2 133h24v-52h66v52h24v-133h-25v56h-65v-31m719 88h-7c-15-3-23-11-27-26l-1-12v-75c-9 0-17-1-25 1v80c1 30 17 48 44 54l18 1c32 0 54-20 55-51l1-79-1-6h-24v77c-1 22-11 35-33 36m-220-85 8 5 16-16c-25-29-75-26-98-3a72 72 0 0 0-19 74c6 23 20 38 42 45 14 4 27 4 41 2s26-8 36-19l-18-16-6 5c-30 18-66 3-72-30-4-20 7-50 38-54 11-1 21 1 32 7m-1252-6 23 10 15-15c-26-29-76-25-99-3a72 72 0 0 0-18 74c6 23 20 38 43 45 13 4 27 4 40 2 14-2 26-8 36-18l-18-17-10 7-12 4c-24 6-46-5-54-27-11-30 8-70 54-62m662 114c19 1 36-5 50-20l-17-16c-27 17-54 16-69-2a50 50 0 0 1 1-63c15-18 41-18 68-2l15-16c-26-29-76-25-99-3a72 72 0 0 0-19 72c6 26 23 43 49 48 6 2 13 2 21 2m1450-114h37v111h25v-111h42v-22h-110v18c0 3 1 5 6 4m-787 107c0 2-1 5 3 5h22v-112h42v-22h-110v23h43v106m-401-107h33v111h25v-111h42v-22h-110v22h10m2339 27v-49h-25v133h25v-84m-756 12v-61h-25v133h25v-72m-552-24v-37h-25v133h25v-96m-1062 89v-126h-26v134h22c3 0 4-3 4-8m967-7v-121l-10 1v157h10v-37m-1620-96v134l10-1v-157h-10v24z"/><path fill="#A50101" d="m2760 311-18 42-59 148-71 181-17 43-3 9h259c9 0 14 3 18 12 14 38 30 75 45 113l5 14c3 7 0 13-8 14l-9 1h-519c-11-1-15-7-11-17l22-56 47-118 44-111 94-236 71-179 3-7c2-7 7-10 15-10l147 1c4 5 3 8 1 12l-39 98-17 46z"/><path fill="#232323" d="m3940 250-187 1c-30 0-52 13-66 40-6 12-6 25-6 38a153883 153883 0 0 0 1 400c1 20 11 36 27 48 13 10 28 15 46 15l320-1c19 0 22 3 22 21v58c-1 14-4 18-17 18h-338c-30-1-57-11-82-27-18-12-34-27-46-46-16-23-26-48-28-76l-2-38V324c0-51 18-94 56-128 30-27 65-42 105-42h342c7 2 10 6 10 13v66l-1 5c0 8-3 12-12 12h-144zM1138 792h69c9 1 13 5 13 14l1 54-1 16c0 9-3 12-12 12h-7l-317 1a164 164 0 0 1-149-91c-8-15-14-30-16-46l-3-33V323c0-78 48-138 115-162 16-5 32-7 49-7h330c7 1 10 4 10 11l1 15v53c-1 15-3 17-18 17l-295 1-36 1c-32 3-59 35-59 66v405c0 40 37 70 70 69h255zM1932 262a66 66 0 0 0-31 59v400a71 71 0 0 0 71 71h321c11 1 15 5 15 15v66c0 11-4 15-15 15h-329c-39 0-72-14-101-39a163 163 0 0 1-59-127V320a167 167 0 0 1 165-166h322c14 0 17 3 17 17v62c0 14-3 17-17 17l-315 1c-16 0-30 1-44 11zM634 888l-59 1c-9 0-15-3-22-10L450 765l-66-73-127-143-26-27-7-9c-4-7-1-18 9-17l10-1h233a69 69 0 0 0 71-69l1-106c0-36-30-67-66-68H214c-11-1-14-4-14-14v-70c0-10 3-13 13-14h269a166 166 0 0 1 162 160v116c-1 46-19 83-52 115a166 166 0 0 1-116 47h-50l12 14 98 108 128 143 10 11c4 4 5 9 3 14-3 6-7 6-12 6h-31zM3244 494h100c31-1 54-14 66-43 3-8 5-17 5-25l1-108c-1-34-28-63-59-66l-17-2-245 1-7-1c-7 0-10-3-11-10l-1-6v-64l1-7c1-6 4-9 10-9h265c39 0 74 15 103 41a165 165 0 0 1 57 117v114c0 43-16 81-45 112-25 27-55 43-91 50-14 2-28 2-43 2h-39l11 14 78 86 59 67 86 95 14 14c4 4 5 9 3 15s-7 7-12 7h-95c-6 0-10-3-14-7l-77-86-92-102-82-91-73-81-7-8c-6-8-2-17 8-19h143zM4316 570h-17c-10-1-15-6-15-15v-67c0-11 5-15 16-16h282V175c0-19 2-21 21-21h65c7 1 10 4 10 11l1 8v696c0 16-3 19-19 19h-60c-14 0-18-4-18-19V570h-266zM2760 311l17-46 39-98c2-4 3-7 0-12l20-1c7 0 13 4 15 11l23 58 29 72 58 149 44 108 40 103 42 106 39 98 4 14c0 9-4 13-13 13h-117c-11 0-12 0-15-10l-107-270-73-183-45-112zM1728 528c23 28 36 60 40 95v97c0 14-4 18-18 18h-63c-11 0-15-4-15-15v-82c0-22-8-41-24-56a69 69 0 0 0-48-18l-169-1c-50 0-92-20-124-59-23-26-36-57-37-91-2-32-1-64-2-96 0-9 5-13 13-14h68c13 0 17 4 17 17v82c0 32 27 62 58 63l27 1h155a166 166 0 0 1 122 59zM4230 244v623c0 18-3 21-21 21h-57c-15 0-18-4-18-18V171c0-13 3-17 17-17h63c12 0 16 3 16 16v74zM4811 712v163c-1 9-5 13-14 13h-68c-10 0-14-5-15-15V334c0-13 5-18 18-18h61c14 0 18 3 18 17v379zM1257 828l1-23c0-8 4-12 12-13h461c11 1 16 9 10 19l-13 19a167 167 0 0 1-117 58h-346c-6-2-8-7-8-13v-47z"/><path fill="#242424" d="M1332 188a153 153 0 0 1 97-34h317l10 1c7 2 10 5 10 13v70c0 8-5 13-13 14h-448c-13-1-17-10-11-21 10-16 23-30 38-43z"/><path fill="#232323" d="M2180 569h-204c-20 0-22-2-22-22v-56c0-14 5-19 20-19a512564 512564 0 0 1 324 1c7 2 10 5 10 12v72c0 7-3 10-10 11l-10 1h-108zM867 487c2-11 5-14 14-15h325c10 1 14 5 14 15v69c0 9-3 12-12 13H888c-19 0-21-4-21-21v-61z"/><path fill="#080808" d="M2558 1359c-5-6-12-8-20-10-15-3-30-3-45 5a54 54 0 0 0-20 75c9 13 22 19 37 21 11 1 22 1 33-4l8 14c-10 7-21 9-32 10-11 0-23-2-34-7-33-14-42-44-38-74 6-42 41-62 77-60 9 0 18 2 27 5 21 7 34 22 40 43 4 16 4 31-1 46-2 7-6 13-11 17-13 10-28 7-36-8-14 14-29 16-46 8-16-9-25-26-23-46 2-17 16-32 33-36 13-4 25-1 35 10l3-6 13 1c2 4 2 6 2 9v47c0 3-1 7 3 9 6-1 8-6 9-11 3-14 3-28-2-41-2-7-5-13-12-17m-59 27-4 9c-3 12 3 25 14 29 12 4 24 1 30-9 7-11 5-27-4-34l-10-5c-9-1-19 0-26 10z"/><path fill="#A30202" d="M4714 250v-81c1-11 5-15 16-15h65c12 0 16 3 16 15v91c0 13-3 16-16 16h-63c-14 0-18-3-18-17v-9z"/><path fill="#080808" d="M1336 1364v10c7-3 14-7 21-8 14-3 28-1 40 7 23 14 23 46 2 62a65 65 0 0 1-71 0c-10-8-15-18-16-30v-45c1-17 9-28 24-35 20-8 40-8 59 2 12 5 18 15 18 28h-22c-2-9-9-13-18-15-11-1-21-1-30 6-6 4-8 10-7 18m37 22c-9-3-19-2-27 2-7 4-11 9-10 17 0 8 4 13 10 16 8 4 16 4 25 3 11-1 19-8 20-17 2-9-3-16-15-21h-3zM1298 1413c-4 15-14 24-28 29-17 6-34 5-51-3-14-7-22-18-23-34v-45c1-17 9-28 24-35 20-8 40-8 59 2 12 5 18 14 18 28h-22c-2-9-9-13-18-15-11-1-21-1-30 6-5 3-7 7-7 13v16a57 57 0 0 1 67 2c10 10 12 22 11 36m-61-27-6 2c-8 4-12 9-11 17 0 8 4 13 11 16 11 5 22 5 32 1 8-3 12-9 13-17 0-9-5-14-13-18-8-3-16-4-26-1zM708 1326c17 8 24 20 24 38v39c-1 20-10 32-29 39-17 6-35 5-52-2-13-6-20-15-21-30h22c8 14 24 19 40 14 14-4 17-11 16-34l-6 4c-18 11-49 7-63-9a38 38 0 0 1 4-53c15-12 33-14 51-11l14 5m0 32c-1-8-6-12-12-15-10-4-21-4-31 0-8 3-12 9-13 17 0 9 5 14 13 18 10 4 20 4 30 0 8-3 14-9 13-20z"/><path fill="#070707" d="M1842 1368c25 7 32 27 28 45-2 9-7 16-14 22a65 65 0 0 1-72-1c-8-6-14-15-14-26v-52c0-11 6-20 15-26 19-13 53-14 71-1 9 6 14 15 14 26h-21c-9-14-24-19-40-14-15 5-18 13-16 34 15-12 31-13 49-7m-50 35c0 11 6 16 15 19s19 3 28 0 13-9 13-17c0-9-4-15-13-18-8-3-17-4-26-1-8 2-15 7-17 17zM1751 1341l4 15h-22a34 34 0 0 0-46-12c-7 3-11 9-11 17v14l18-9c15-4 30-1 44 7 23 13 23 46 2 61a65 65 0 0 1-72 0c-8-6-14-15-14-26v-52c0-12 6-21 16-27 23-13 46-13 69 0 5 2 8 8 12 12m-72 55c-4 12-2 20 8 24 11 6 23 6 35 1 14-6 13-25 1-32-13-8-32-6-44 7z"/><path fill="#050505" d="m2182 1387-2 15v41h-21v-25l-1-26c-1-10-7-16-16-16-10 0-16 5-18 15l-1 12v40h-20c-2-7-3-58-1-85h19l2 7c18-16 39-10 49 7l2-4c11-13 25-14 40-10 15 5 21 16 22 31v54h-21v-34l-1-22c-3-11-16-15-26-7l-6 7z"/><path fill="#070707" d="M983 1445c-10-1-18-4-26-9-9-7-13-16-13-27h21c10 15 31 21 48 11 5-3 8-8 8-15-1-7-5-11-11-13l-15-2h-19v-18l19-1c5 0 11-1 16-3 10-4 11-14 3-21l-8-4c-9-2-19-3-28 2l-13 10h-19c-1-10 4-19 12-25 18-14 52-14 70 0 19 13 19 36 0 51l3 2c23 14 15 44-2 53-14 9-29 11-46 9z"/><path fill="#090909" d="M2260 1427c-7-13-8-26-4-40 7-30 43-42 67-22l3 2 2-9h19v85h-19l-2-8c-24 17-46 17-66-8m38 0c21 0 33-16 26-36-4-11-14-18-26-17-12 2-21 10-22 22-3 16 4 26 22 31zM4058 1358h7v85h-19l-2-9c-9 9-19 13-32 12-20-1-35-12-39-33v-25c7-31 43-43 68-23l3 1 2-8h12m-14 43-1-8c-4-14-17-21-31-18-14 4-21 17-18 33 3 13 16 22 29 19 12-2 18-9 21-26z"/><path fill="#0A0A0A" d="m2735 1445-8-1-9-2c-19-8-28-27-26-50 2-19 16-33 35-36l6-2c32-3 54 22 47 53h-65c2 20 24 25 48 12l6 6 7 7c-12 11-26 14-41 13m4-57h21c-3-10-8-13-18-14-15-1-22 3-27 14h24zM2903 1409c5 15 18 21 34 16 5-1 9-4 14-6l12 14-8 5c-16 9-32 10-49 4-19-7-29-27-26-50 2-19 16-33 35-36l7-2c31-3 53 22 46 53l-65 2m44-21c2-6-3-10-7-12-10-4-20-4-30 2-3 2-7 5-6 10h43zM3710 1421l12 10a51 51 0 0 1-40 15c-41-2-50-35-43-61 4-18 19-29 40-30 39-3 52 27 46 53h-65c0 8 4 13 11 16 11 4 21 3 32-2 2-1 4-4 7-1m-29-47c-13 1-18 5-20 14h45c-5-12-13-14-25-14z"/><path fill="#0B0B0B" d="M4270 1384c-5 6-6 12-6 18v41h-21v-121h21v45c7-4 13-8 20-10 20-4 36 6 40 25l2 7v54h-21v-9l-1-40c0-11-8-17-18-18-6 0-12 3-16 8zM3298 1334v-12h22v46l8-6c20-13 46-3 52 20l2 9v52h-21v-46c-1-13-8-20-19-21-12 0-21 9-22 21v46h-22v-109z"/><path fill="#0A0A0A" d="M3880 1355c26 6 37 24 33 53h-65c3 19 23 24 48 11l12 14-7 5c-16 8-32 10-49 4-18-6-29-25-27-46 2-29 24-45 55-41m4 21-19-2c-8 1-14 5-17 14h45c0-6-4-9-9-12z"/><path fill="#070707" d="M3120 1364v79h-19l-2-8-2 1c-14 12-29 13-45 7-15-6-23-18-24-34l-1-14c2-25 22-43 52-39 7 2 13 6 20 10l2-8h19v6m-21 39-1-6c-2-14-11-23-24-23-14 0-24 9-26 22-2 15 5 27 19 31 15 4 28-5 32-24z"/><path fill="#080808" d="M1128 1344h-32v-22h89c1 6 2 11-1 16l-53 105h-26l49-99h-26zM1503 1322c7 4 5 9 4 14l-7 15-43 84-4 8h-26l49-99h-58v-22h85zM1906 1344h-31v-22h89c1 6 1 12-2 17l-50 100-2 4h-26l49-99h-27zM1600 1368l11-24h-58v-21c6-2 75-2 88-1 3 8 1 14-2 20l-47 93-4 8h-26l38-75zM853 1344c-5 0-7-1-7-5v-17h90c1 6 2 11-1 17l-51 102-2 2h-26l49-99h-52zM2798 1373c4-9 11-13 19-15 17-5 33-4 49 10l-12 14c-8-6-16-8-25-7-7 0-12 3-12 8 0 4 4 7 12 8l19 3c14 3 21 10 22 22 1 11-6 22-18 27-19 8-46 3-59-13l9-12 25 9c5 1 11-1 16-2 4-1 6-4 5-8 0-4-3-6-7-7l-13-2-15-3c-15-5-20-15-15-32zM3765 1446c-11-3-20-7-27-15l9-13 27 9c4 1 10-1 15-3 2 0 4-5 4-8 0-2-3-5-6-5-4-2-10-2-14-3-7-1-13-2-19-5-17-7-18-30-3-40 17-11 48-9 59 5l-10 13c-5-2-10-5-14-5h-18c-4 0-7 3-6 7l5 6c4 2 9 2 13 3 6 1 13 1 18 4 18 6 22 27 9 40-5 6-13 9-21 10h-21z"/><path fill="#0B0B0B" d="M786 1406v18h16v20h-57v-19h17v-81h-18v-22h42v84z"/><path fill="#080808" d="M3225 1437c-18-14-19-43-10-59l5-8c16-19 54-19 66-1l-14 11c-16-7-28-6-36 5-7 9-7 23 0 32 8 10 22 11 39 2l12 14c-12 17-45 17-62 4zM4155 1407l1-21c3-12 11-20 22-26 14-7 41-7 52 8l-14 12c-6-4-14-6-23-3-5 1-10 5-13 9-7 9-6 24 2 32 9 9 22 10 38 1l12 15c-12 12-27 15-44 11-19-4-30-17-33-38z"/><path fill="#070707" d="M2018 1350v-37h19c2 6 3 133 1 145h-20v-108z"/><path fill="#040404" d="M3502 1358v99h-20v-144h20v45z"/><path fill="#0A0A0A" d="M3182 1356c10 0 17 2 24 8l-8 17-17-3c-13 0-21 7-21 20v45h-21v-85h19l3 9c5-8 12-11 21-11zM3595 1359c14-5 26-4 37 5l-8 17-18-3c-12 0-20 7-20 20v45h-20c-2-7-3-62-1-85h19l2 8 9-7z"/><path fill="#040404" d="M2620 1424v-66h19l2 8c15-14 30-14 46-3l-8 18-16-3c-14-1-21 6-22 20v45h-21v-19zM4084 1412v-54h19l2 8c15-14 30-13 46-3l-8 18-17-3c-13 0-21 7-21 20v45h-21v-31z"/><path fill="#0B0B0B" d="M2406 1432v-110h21v121h-21v-11z"/><path fill="#070707" d="M545 1387v-13h26v-26h21v25h25v19h-25v26h-21v-26h-21c-2 0-5 0-5-5z"/><path fill="#0E0E0E" d="M4344 1384v-26h22v85h-22v-59z"/><path fill="#040404" d="M3400 1398v-40h20v85h-20v-45zM2372 1444c-4 0-6 0-6-4v-82h20v86h-14z"/><path fill="#E7E7E7" d="M2558 1360c7 3 10 9 12 16 5 13 5 27 2 41-1 5-3 10-9 11-4-2-3-6-3-9v-47c0-3 0-5-2-9v-3z"/><path fill="#0E0E0E" d="M4368 1335c-5 10-10 12-17 10-5-2-9-7-9-12 1-6 5-11 11-12 5-2 11 1 13 6l2 8z"/><path fill="#0A0A0A" d="m2998 1420 7 2c5 4 6 9 5 15-2 5-7 8-13 8-5 0-10-3-11-8-2-6 0-12 5-15l7-2z"/><path fill="#0E0E0E" d="M2372 1321c9-1 14 2 16 8s0 12-5 15c-6 3-13 1-17-3-3-4-3-11 0-16l6-4z"/><path fill="#0A0A0A" d="M3948 1443c-12 3-18-1-19-9 0-6 2-10 7-12 5-3 11-2 14 1 4 4 5 10 3 14l-5 6z"/><path fill="#0E0E0E" d="M3423 1334c-3 9-8 12-15 11-6-1-10-5-10-11-1-7 3-12 9-13 6-2 12 1 14 6l2 7z"/><path fill="#B12222" d="M4800 1243c0-2 1-2 2-3v7l-2-4zM204 1241h2-2z"/><path fill="#FCF8F8" d="M313 1041v-7l6-1 63 1c31 1 51 30 41 59-3 11-10 19-21 24l-10 3 40 46-1 2h-26l-7-5-29-33c-5-6-9-8-16-8h-14v45h-26v-126m25 36v22h44c7 0 12-4 16-11 7-13-2-29-18-30h-35l-7 1v18zM3542 1127v40h-25v-133l4-1 66 1c24 1 41 18 43 42 0 15-6 35-28 42l-6 3 40 45v2l-28-1a1421 1421 0 0 1-37-40c-3-3-7-5-12-5l-13 1-4 4m62-51c-4-14-10-18-23-18h-32l-6 1v40h41c13-1 19-8 20-23zM2798 1156l-23-27c-5-5-9-7-16-7h-15v45h-25v-132l1-1c25 0 49-2 73 1 31 2 47 35 35 63-4 8-10 15-19 18l-11 4 21 24 21 24h-29c-2 0-4-2-5-3l-8-9m-54-73v16c16 0 31 1 45-1 11 0 18-10 17-21s-9-18-20-19h-42v25zM957 1100v-66l6-1 60 1c7 0 13 1 19 3 29 11 35 47 19 68-4 5-11 9-17 12-2 2-4 2-8 3l40 46-1 2h-26l-7-5-30-34c-4-5-8-7-14-7h-15l-1 45h-25v-67m67-42h-41v42h25c7-1 14 0 20-2 11-2 17-11 16-22-1-9-7-15-20-18z"/><path fill="#FDF9F9" d="M3850 1144v-110l4-1 67 1c19 1 35 13 40 32 5 21-2 46-27 52l-5 3 42 47-30-1c-2 0-4-2-6-4l-30-34c-3-5-8-7-14-7h-15v45h-26v-23m58-44 12-1c11-3 17-11 17-22-1-10-8-18-19-19h-42v42h32zM1630 1146v-112l4-1 67 1c19 1 35 13 40 32 5 21-2 46-27 52-1 1-2 2-5 2l42 48-30-1c-2 0-4-2-6-4l-30-34c-3-5-8-7-14-7h-15v45h-26v-21m77-85c-2-1-4-3-7-3h-44v42h22c8-1 15 0 23-2 10-1 16-9 16-20 0-6-3-12-10-17z"/><path fill="#FCF8F8" d="M4119 1147a60 60 0 0 1-44 20l-57 1c-3-8-3-101-2-134h54c46-1 72 35 65 80-2 12-7 23-16 33m-77-52v47h35c14-2 25-10 30-23s5-26-1-39c-4-11-12-18-24-21-13-3-27-1-40-1v37z"/><path fill="#FDFAF9" d="m3172 1042 57 71c2-13 2-26 2-39v-40h25v133h-16l-68-88c-3 9-1 16-2 23v65h-24c-2-7-3-114-1-133 10 0 20-4 27 8zM4600 1168l-7-1v-133h17l9 6 52 66c2 2 4 5 8 7v-79h25v133c-9 2-16 1-22-7-18-25-37-48-56-72l-8-10v90h-18z"/><path fill="#FCF9F9" d="M3828 1077c5 18 4 35-2 52-9 25-31 40-58 41-8 0-17 0-25-2-26-5-41-22-48-47-4-15-3-31 2-45 12-36 43-49 75-45 28 3 46 19 56 46m-75 69c11 3 21 2 31-4 17-10 23-26 22-45-1-18-9-33-27-40-21-8-52-3-60 31l-1 18c2 21 14 37 35 40zM2264 1142h41v24c-7 2-84 3-100 1v-133h100v24h-74v30h71v25h-72v29h34zM2868 1034h81v24h-74v30h71v24h-71v30h74v25h-100v-133h19zM3422 1120v22h75v25h-100v-132c7-2 77-3 100-1v24h-74v30h71v24h-71l-1 8zM4538 1112h-25v-22h57v50c0 4-1 8-4 11a63 63 0 0 1-45 19c-9 0-18 0-27-2-25-6-41-22-46-47-4-17-3-34 3-50 9-21 25-35 47-40 26-5 48 0 69 19l-16 16c-9-6-18-11-29-13-19-3-38 7-46 25-6 12-7 25-4 38 4 13 12 23 26 27 14 5 28 5 42-2 4-3 7-6 7-12v-16l-9-1z"/><path fill="#FDFBFB" d="M698 1168c-4 0-7 0-6-5v-129h99v24h-74v30h72v24h-72v30h74v26h-93zM4252 1148v19h-100v-133h100v24h-75v30h72v24h-72v30h68c4 0 8 0 7 6zM536 1112h-69v30h74v25h-98c-2-7-3-96-1-133h100v24h-75v30h73l-1 22-3 2z"/><path fill="#FCF7F7" d="m1244 1087 6 3h60v-56h25v133h-24v-52h-66v52h-25c-2-7-2-112 0-133h24v53z"/><path fill="#FCF9F9" d="m829 1160-4 8h-27l60-134h28l60 133h-27l-12-24h-70l-8 17m44-96-5 6-16 38-4 10h49l-24-54zM1562 1142h-51l-12 25h-26c0-6 32-78 58-133h29l59 133h-28l-11-25h-18m-26-60-15 36h49l-24-55-3 4-7 15z"/><path fill="#FCF7F7" d="m596 1104-12-4c-13-6-20-17-20-31s6-25 18-32c22-11 44-12 67-2 9 4 16 10 20 20l-19 10c-8-7-16-13-27-14-7 0-14 0-20 2-3 0-7 3-9 5-8 7-6 19 4 22l26 6c9 2 17 3 25 6 15 6 23 17 24 33 1 15-4 28-18 36l-19 8c-17 3-33 3-49-3-14-5-23-14-29-29l21-10c12 19 30 22 50 19 3 0 6-1 8-3 7-3 11-8 11-15s-4-12-11-14c-6-3-14-4-21-6l-20-4zM4382 1139c-5 16-16 24-30 28-18 5-36 5-54-1-14-4-24-14-30-29l21-11c7 15 20 21 34 21 8 0 17-2 25-4 6-2 10-7 10-14 0-8-4-13-10-15l-23-6c-9-2-19-3-27-6-20-7-29-26-22-45 2-8 7-15 14-19 23-13 47-13 71-2 9 4 13 10 17 19l-18 10c-8-8-18-14-29-14-7 0-15 1-21 3-7 2-11 7-10 15 0 7 5 10 11 12l23 5 17 3c23 6 37 22 31 50z"/><path fill="#FDFBFB" d="M1918 1060v30h65v-56h25v133h-24v-52h-66v52h-24c-3-7-4-97-2-133h26v26z"/><path fill="#FDFAF9" d="M2638 1147c21-1 31-14 32-36v-77h24l1 6-1 79c-1 31-23 51-55 51l-18-1c-27-6-43-24-44-54v-80c8-2 16-1 25-1v75l1 12c4 15 12 23 27 26h8z"/><path fill="#FCF8F8" d="M2417 1061c-11-5-21-7-32-6-31 4-42 34-38 54 6 33 42 48 72 30l6-5 18 16a61 61 0 0 1-36 19c-14 2-27 2-41-2-22-7-36-22-42-45-7-28-2-53 19-74 23-23 73-26 98 3l-16 16-8-6zM1164 1056c-45-8-64 32-53 62 8 22 30 33 54 27l12-4 10-7 18 17a60 60 0 0 1-36 18c-13 2-27 2-40-2-23-7-37-22-43-45-7-28-2-53 18-74 23-22 73-26 99 3l-15 15-24-10zM1826 1170c-7 0-14 0-20-2-26-5-43-22-49-48-6-27-1-51 19-72 23-22 73-26 99 3l-15 16c-27-16-53-16-68 2a50 50 0 0 0-1 63c15 18 42 19 69 2l17 16a67 67 0 0 1-51 20z"/><path fill="#FCF9F9" d="M3277 1056c-5 1-6-1-6-4v-18h110v22h-42v111h-25v-111h-37zM2490 1162v-105h-43v-23h110v22h-42v112h-22c-4 0-3-3-3-6zM2088 1056h-9v-22h110v22h-42v111h-25v-111h-34z"/><path fill="#FBF6F6" d="M4428 1084v83h-25v-133h25v50zM3672 1096v71h-25v-133h25v62zM3120 1072v95h-25v-133h25v38zM2058 1161c0 4-1 7-4 7h-22v-134h26v127z"/><path fill="#FBF5F4" d="M3025 1154v36h-10v-157l10-1v122zM1405 1056v-23h10v157l-10 1v-135z"/><path fill="#F8F8F8" d="M2499 1385c7-9 17-10 26-9l10 5c9 7 11 23 4 34-6 10-18 13-30 9-11-4-17-17-14-29l4-10zM1374 1386h2c12 5 17 12 15 21-1 9-9 16-20 17-9 1-17 1-25-3-6-3-10-8-10-16-1-8 3-13 10-17 8-4 18-5 28-2zM1238 1386c9-3 17-2 25 1 8 4 13 9 13 18-1 8-5 14-13 17-10 4-21 4-32-1-7-3-11-8-11-16-1-8 3-13 11-17l7-2zM708 1359c1 10-5 16-13 19-10 4-20 4-30 0-8-4-13-9-13-18 1-8 5-14 13-17 10-4 21-4 31 0 6 3 11 7 12 16zM1792 1403c2-10 9-15 17-17 9-3 18-2 26 1 9 3 13 9 13 18 0 8-4 14-13 17s-19 3-28 0-15-8-15-19zM1679 1395c12-12 31-14 44-6 12 7 13 26-1 32-12 5-24 5-35-1-10-4-12-12-8-25zM2297 1427c-17-5-24-15-21-31 1-12 10-20 22-22 12-1 22 6 26 17 7 20-5 36-27 36zM4044 1402c-3 16-9 23-21 25-13 3-26-6-29-19-3-16 4-29 18-33 14-3 27 4 31 18l1 9zM2738 1388h-23c5-11 12-15 27-14 10 1 15 4 18 14h-22zM2947 1388h-43c-1-5 3-8 6-10 10-6 20-6 30-2 4 2 9 6 7 12zM3682 1374c11 0 19 2 24 14h-45c2-9 7-13 21-14zM3885 1376c4 3 8 6 8 12h-45c3-9 9-13 17-14l20 2zM3099 1404c-4 18-17 27-32 23-14-4-21-16-19-31 2-13 12-22 26-22 13 0 22 9 24 23l1 7z"/><path fill="#A70707" d="M338 1076v-17l7-1h35c16 1 25 17 18 30-4 7-9 11-16 11h-44v-23zM3604 1076c-1 15-7 22-20 23h-41v-40l6-1h32c13 0 19 4 23 18zM2744 1082v-24h42c11 1 19 8 20 19s-6 21-17 21c-14 2-29 1-45 1v-17zM1025 1058c12 3 18 9 19 18 1 11-5 20-16 22-6 2-13 1-20 2h-25v-42h42z"/><path fill="#A60404" d="M3908 1100h-32v-42h42c11 1 18 9 19 19 0 11-6 19-17 22l-12 1zM1708 1061c6 5 9 11 9 17 0 11-6 19-16 20-8 2-15 1-23 2h-22v-42h44c3 0 5 2 8 3z"/><path fill="#A50202" d="M4042 1094v-36c13 0 27-2 40 1 12 3 20 10 24 21 6 13 6 26 1 39s-16 21-30 23h-35v-48z"/><path fill="#A60404" d="M3752 1146c-20-3-32-19-34-40l1-18c8-34 39-39 60-31 18 7 26 22 27 40 1 19-5 35-22 45-10 6-20 7-32 4z"/><path fill="#A70707" d="m873 1065 24 53h-49l4-10 16-38 5-5zM1537 1081l6-14 3-4 24 55h-49l16-37z"/></svg>