<svg xmlns="http://www.w3.org/2000/svg" viewBox="0 0 5000 1500" xml:space="preserve"><path fill="#A60202" d="M216.334 985.031h4585.392v296.488H204.277V985.03zm3385.869 210.367c1.464 1.339 2.72 3.13 4.438 3.919 3.223 1.479 24.598.22 29.624-1.539l-39.908-45.336c3.933-1.545 6.687-2.612 9.43-3.706 10.955-4.37 17.894-12.47 21.474-23.518 9.55-29.47-9.774-58.033-40.803-59.328-21.622-.902-43.3-.473-64.953-.593-1.261-.007-2.525.387-3.654.572-2.066 13.06-1.453 126.748.559 133.172h23.833c.355-15.199-.178-29.713.332-44.552 6.442 0 11.456.363 16.394-.096 5.6-.52 9.275 1.676 12.786 5.873 9.615 11.496 19.626 22.66 30.448 35.132m-3232.27-32.48c9.193 10.548 18.344 21.134 27.619 31.61 1.713 1.935 3.851 4.78 5.92 4.892 9.355.51 18.755.188 30.432.16-8.339-9.438-14.92-16.876-21.489-24.326-6.514-7.39-13.014-14.794-20.038-22.78 3.858-1.53 6.603-2.615 9.345-3.707 10.954-4.362 17.918-12.435 21.518-23.484 9.595-29.455-9.705-58.09-40.723-59.384-21.957-.916-43.97-.465-65.959-.574-.927-.005-1.857.49-2.7.728-2.013 12.2-1.461 126.483.527 133.005h23.876c.305-15.188-.157-29.702.287-44.57 5.78 0 10.136.393 14.393-.088 7.01-.792 12.325 1.402 16.992 8.518m685.207 10.906-18.653-21.348c3.687-1.479 6.422-2.585 9.163-3.674 10.952-4.355 17.944-12.397 21.566-23.445 9.649-29.439-9.62-58.14-40.628-59.452-21.957-.929-43.973-.47-65.962-.584-.932-.004-1.867.46-2.712.683-1.99 11.442-1.529 126.366.43 133.08h23.903c.366-15.162-.209-29.686.35-44.595 6.02 0 10.704.4 15.29-.097 6.315-.684 10.512 1.685 14.502 6.547 9.507 11.585 19.506 22.772 29.511 33.936 1.856 2.07 4.593 4.505 7.06 4.664 8.772.566 17.603.221 26.411.221l.905-2.014c-6.73-7.62-13.462-15.24-21.136-23.922m1747.061 19.306c2.438 2.176 4.601 4.847 7.39 6.388 2.783 1.539 24.152-.164 28.712-1.72l-39.96-45.339c3.931-1.548 6.682-2.62 9.425-3.714 10.955-4.368 17.901-12.46 21.487-23.51 9.563-29.464-9.757-58.046-40.784-59.343-21.623-.905-43.303-.474-64.957-.596-1.262-.007-2.527.384-3.656.568-2.07 12.987-1.46 126.754.552 133.176h23.83c.364-15.2-.183-29.716.34-44.551 6.442 0 11.457.364 16.396-.097 5.602-.522 9.284 1.676 12.783 5.881 8.947 10.753 18.303 21.165 28.442 32.857m1138.898-27.257-11.624-13.271c2.151-1.097 2.978-1.715 3.904-1.963 28.785-7.707 32.92-37.663 26.466-56.09-6.018-17.184-21.64-28.212-41.633-28.753-19.964-.54-39.947-.383-59.922-.478-2.545-.013-5.091.294-7.833.465v133.215h25c.736-15.184-.438-29.7.728-44.519 6.084 0 11.081.379 15.995-.1 5.638-.548 9.203 1.77 12.694 5.97 9.573 11.52 19.543 22.71 29.445 33.952 1.712 1.944 3.737 4.832 5.82 5.019 9.382.842 18.826.646 30.603.126a36858 36858 0 0 0-29.643-33.573m-2199.156-47.831c4.27-33.016-19.28-53.217-48.834-52.581-18.623.4-37.265-.099-55.899-.143-2.204-.005-4.408.316-6.751.497v133.187h25.051c.565-15.182-.334-29.679.559-44.523 5.835 0 10.51.44 15.068-.105 6.39-.765 10.44 1.846 14.39 6.665 9.487 11.576 19.486 22.736 29.417 33.94 1.671 1.886 3.973 4.392 6.09 4.5 9.058.46 18.156.129 29.679.075l-40.963-46.727c23.678-11.306 26.586-14.352 32.193-34.785m2324.937-52.393c-16.821.006-33.643-.019-50.317.017-1.994 29.215-1.116 126.378 1.164 133.928 18.89 0 37.88.666 56.808-.155 29.13-1.262 50.369-17.993 58.555-44.689 3.176-10.357 3.794-20.954 2.7-31.632-3.014-29.376-22.297-50.72-51.054-56.321-5.18-1.009-10.596-.795-17.856-1.148m-840.86 115.365c3.486 4.458 7.208 8.756 10.384 13.424 2.7 3.967 5.898 6.001 10.767 5.373 2.858-.368 5.765-.364 8.854-.539v-133.155h-25.015v40.229c0 6.659.248 13.33-.071 19.974-.3 6.246 1.404 12.76-1.558 19.72-3.799-4.774-6.898-8.66-9.99-12.554-16.351-20.595-32.646-41.237-49.126-61.729-1.94-2.413-4.7-5.296-7.425-5.714-5.734-.88-11.698-.267-17.578-.267v133.386h24.946v-29.413c0-9.656-.146-19.315.042-28.967.183-9.365-.856-18.811.953-29.836 18.706 23.906 36.325 46.423 54.817 70.068m1453.16-113.055c-.633 25.654.448 51.351-.661 79.37-4.13-5.104-6.616-8.131-9.053-11.2-16.99-21.391-33.944-42.81-50.982-64.164-2.187-2.74-3.706-6.421-8.311-6.261-5.569.193-11.15.046-16.967.046v133.463h25.002c0-14.809-.003-29.069 0-43.329.003-14.408.013-28.816.02-43.224 3.941 2.288 6.082 4.794 8.11 7.386 19.305 24.658 38.67 49.267 57.8 74.06 3.13 4.057 6.273 6.56 11.618 5.735 2.52-.39 5.151-.067 8.284-.067v-133.44c-8.227 0-16.1 0-24.86 1.625m-928.713-4.735c-27.02 3.948-44.658 19.355-53.579 44.747-2.284 6.501-3.5 13.602-3.897 20.503-1.981 34.535 15.821 65.764 52.779 72.485 9.663 1.757 20.016 1.786 29.778.51 21.53-2.815 37.855-14.277 47.458-33.942 11.005-22.537 11.307-45.68.622-68.381-8.728-18.544-23.553-30.588-43.705-34.672-8.986-1.822-18.476-1.159-29.456-1.25m-265.696 2.426h-87.938v133.417h99.873V1174h-74.263v-29.764h71.432v-23.926c-12.369 0-24.277.07-36.184-.02-11.817-.09-23.667.396-35.07-.271v-29.82h74.296v-24.55zM2204.22 1178.93l.34 20.3h100.288v-24.91h-74.185v-30.102h70.991v-24.225h-71.207v-29.465h74.298V1066.4H2204.22zm644-29.93c0 8.328-.036 16.655.01 24.983.048 8.502.177 17.003.267 25.228h100.337v-24.925h-74.153v-30.097h70.958v-24.224h-71.176v-29.466h74.266v-24.853c-33.8.029-66.906-.044-100.509.044zm1653.147 27.328c-18.333-4.756-27.642-17.318-30.551-35.379-3.1-19.245 5.532-40.184 21.223-49.472 17.859-10.572 35.576-8.699 52.687 2.31 2.127 1.37 4.192 2.836 6.476 4.386l15.483-16.228c-16.443-15.316-34.723-21.573-55.748-20.244-27.744 1.753-47.775 14.69-59.104 40.446-6.662 15.144-7.658 31.004-5.157 47 2.56 16.371 10.41 30.049 23.747 40.276 20.764 15.923 67.51 20.622 92.887-4.05 4.553-4.428 7.352-8.643 7.044-15.449-.6-13.292-.15-26.631-.197-39.95-.01-2.556-.312-5.11-.521-8.31-19.337.03-38.074-.13-56.698.1v23.008h33.646c0 6.672-.249 12.316.081 17.926.254 4.312-1.732 6.705-5.148 8.792-12.108 7.4-25.065 8.054-40.15 4.838m-3984.392 23.44h24.544v-25.715h-74.427c-.258-10.434-.724-19.854.26-30.075h71.539v-23.999h-71.702c-.494-10.283-.697-19.713.027-29.454 25.716-.16 50.173.073 74.395-.136v-24.002h-99.708c-1.881 35.489-.994 125.295 1.407 133.38zm272.704-62.99v-16.404h-72.203v-30.12h73.958v-24.027h-99.267v133.033h99.52v-24.89h-74.149v-29.9h14.598c16.983 0 33.966-.077 50.947.052 4.243.031 7.368-.541 6.596-7.743m3405.5 7.692h53.842v-24.214h-71.499v-30.114h74.208v-23.87h-99.512v132.948h99.422v-24.938h-74.72c.1-10.434-.668-19.896.481-29.812zM1218.785 1155c0 7.33-.215 14.669.06 21.99.28 7.464-1.286 15.095 1.172 22.376h24.285v-52.22h66.359v52h24.587v-132.933h-25.377v55.487h-65.888v-55.297h-25.198zm-273.78 41.292-58.593-130.303H857.98l-59.923 133.272h27.631c4.015-8.421 7.847-16.46 11.66-24.454h69.666l11.877 24.966c7.757 0 14.738.118 21.71-.088 1.624-.048 3.216-1.199 4.404-3.393m573.523-102.797-47.442 105.865h27.445l12.027-24.624h69.446l11.543 24.441h27.77l-59.811-132.984h-28.614c-4.022 8.97-7.833 17.469-12.364 27.302m-878.107 80.253c-23.269 11.263-45.077 6.099-62.055-15.015l-20.283 10.464c5.942 14.591 15.47 24.1 29.522 28.94 15.852 5.462 32.1 5.738 48.27 2.31 6.701-1.42 13.414-4.155 19.329-7.637 13.705-8.07 18.914-21.057 18.038-36.454-.88-15.443-8.796-26.546-23.246-31.929-8.338-3.106-17.324-4.487-26.039-6.557-8.393-1.994-16.84-3.765-25.216-5.83-11.894-2.933-11.46-17.6-4.037-22.856 3.423-2.423 7.532-4.385 11.61-5.286 16.542-3.655 30.963.56 43.14 13.479l19.388-10.163c-4.51-9.683-11.007-16.296-19.762-20.119-22.679-9.904-45.284-9.445-67.35 2.087-7.673 4.01-12.938 10.363-15.802 18.583-6.771 19.44 2.275 39.163 21.929 46.053 8.72 3.056 18.064 4.346 27.145 6.35 6.486 1.43 13.244 2.026 19.46 4.198 14.904 5.208 17.53 16.375 5.959 29.382m3641.176-11.594-13.366 7.12c5.582 14.419 15.115 24.022 29.164 28.748 18.189 6.12 36.66 6.171 55.021.82 4.718-1.374 9.3-3.726 13.468-6.377 13.076-8.316 18.156-20.899 17.376-35.878-.804-15.44-8.612-26.628-23.049-32.081-8.321-3.144-17.307-4.557-26.027-6.608-7.752-1.823-15.57-3.357-23.319-5.194-6.3-1.494-11.108-4.577-11.315-11.953-.206-7.291 3.52-12.606 9.966-14.566 6.85-2.084 14.277-3.261 21.426-3.15 11.408.176 20.733 6.05 28.663 14.24l19.06-9.937c-3.651-9.167-9.718-15.401-17.638-19.177-23.81-11.352-47.614-10.877-70.806 1.964-7.242 4.01-11.942 10.434-14.507 18.39-6.206 19.255 2.682 38.418 21.937 45.24 8.708 3.086 18.078 4.293 27.13 6.422 7.735 1.818 15.652 3.155 23.105 5.79 6.334 2.239 10.302 7.278 9.994 14.603-.296 7.064-3.903 12.64-10.333 14.536-7.84 2.314-16.248 4.117-24.339 3.865-14.65-.456-27.137-6.242-33.989-20.368a498 498 0 0 1-7.622 3.55m-2342.57-39.831h-21.406v-56.054h-25.017v132.945h25.175v-51.74c14.354-1.884 58.342-1.38 65.741.756 0 8.465-.212 17.1.06 25.72.268 8.464-1.246 17.062.95 25.293h23.65V1066.2h-24.733v56.12zm730.706-1.337c-.53 11.287-.313 22.673-1.803 33.832-1.406 10.528-7.74 18.532-17.976 22.212-16.674 5.996-42.995 2.112-47.232-26.757-.481-3.277-.513-6.639-.52-9.961-.045-21.333-.024-42.665-.026-63.998v-10.518c-8.977.086-17.055-.968-25.638.797 0 24.554-.008 48.508.01 72.463.002 2.998-.038 6.013.246 8.99 2.775 29.148 17.76 47.127 44.64 52.931 5.786 1.25 11.911 1.347 17.874 1.288 31.58-.312 53.307-19.982 54.787-51.593 1.292-27.591.489-55.28.554-82.926.001-.513-.702-1.026-.956-1.373h-23.96zM1151.26 1062.32c-29.151 1.366-51.083 13.996-62.789 41.45-7.02 16.465-7.457 33.725-2.583 50.887 6.256 22.03 20.052 37.12 42.182 44.19 13.648 4.359 27.624 4.706 41.49 2.383 13.583-2.276 25.74-8.048 35.659-19.134-3.165-3.232-5.895-6.078-8.69-8.86-2.747-2.732-5.56-5.397-8.156-7.91-24.479 16.833-51.955 16.848-67.656.65-15.458-15.947-16.752-43.971-3-62.694 5.798-7.892 13.635-12.645 22.918-14.99 17.226-4.35 32.757-.314 46.462 10.947l16.7-16.31c-14.419-14.128-31.221-20.627-52.537-20.61m604.287 79.28c3.245 28.439 17.348 48.393 45.176 57.442 13.272 4.316 26.99 4.465 40.533 2.25 13.653-2.233 25.836-8.045 35.683-18.81l-17.664-16.221c-24.544 16.04-51.513 15.852-67.04-.804-15.406-16.524-16.093-45.38-1.478-63.542 6.101-7.583 14.166-11.88 23.559-13.982 16.706-3.736 31.488.545 44.074 10.805l16.192-16.464c-26.967-30.608-95.385-28.831-114.822 23.296-4.131 11.078-5.778 22.516-4.213 36.03m565.232-10.32c.436 5.305.4 10.7 1.389 15.9 4.948 26.033 19.302 44.13 45.14 52.087 12.983 3.998 26.375 4.25 39.578 2.082 13.885-2.28 26.39-7.932 35.974-19.011l-16.83-16.344c-27.172 16.649-53.74 16.008-68.883-1.741-14.849-17.405-14.553-46.126.655-63.577 15.13-17.361 41.35-18.129 67.774-1.535l15.595-16.064c-25.815-29.954-88.148-29.034-111.086 13.088-5.706 10.48-8.37 21.645-9.306 35.115m981.775-42.795h11.506v110.666h25.42v-110.771h41.694v-21.976H3271.29v22.08zM2517 1065.65h-69.756v23.091h42.89v110.31h25.143v-37.574c0-11.998-.066-23.997.019-35.994.085-12.148-.39-24.328.383-37.437h41.633v-22.396zm-328.575 22.366 2-21.806h-111.066v22.763h42.23c.331 37.558-.216 73.972.31 110.067h25.378v-37.517c0-11.975-.026-23.95.007-35.925.034-12.153-.155-24.316.15-37.173 13.938 0 26.525 0 40.99-.409M3645.907 1143c0 9.305-.009 18.61.002 27.914.011 9.48.04 18.96.062 28.194h25.026v-133.022h-25.09zm781.685-32v-44.59h-24.955v132.748h24.955zm-1308 38v-82.634h-24.999v132.836h25zm-1084.284-83.32c-5.47.725-3.296 5.05-3.306 7.829-.142 39.553-.103 79.107-.079 118.66.002 2.237.257 4.472.442 7.479 8.657-.16 16.73 1.193 24.49-.825v-133.18c-7.027 0-13.323 0-21.547.037m-629.94 25.337v131.854l9.928-.931v-157.122h-9.929zm1609.095-24.948c-.11 1.322-.317 2.645-.317 3.967q-.027 72.84-.005 145.68c0 1.93.186 3.858.306 6.182h9.56v-157.205c-3.19 0-5.77 0-9.544 1.376"/><path fill="#A50101" d="M2759.789 344.182c-9.23 22.718-18.55 45.4-27.666 68.164-16.55 41.323-33.063 82.66-49.435 124.053-23.446 59.28-46.727 118.626-70.135 177.921-6.563 16.625-13.327 33.172-20.638 51.346h253.431c2.332 0 4.67.091 6.997-.014 8.39-.38 13.315 3.337 16.484 11.353 16.119 40.776 32.676 81.38 49.06 122.05.866 2.15 1.807 4.32 2.27 6.573 1.677 8.159-1.498 12.883-9.637 14.162-3.267.513-6.635.523-9.957.524q-255.41.035-510.82 0c-3.322 0-6.71.073-9.952-.52-7.812-1.428-11.353-7.045-9.276-14.588.877-3.183 2.356-6.203 3.59-9.285 20.503-51.17 41.143-102.286 61.477-153.523 19.835-49.98 39.221-100.137 59.053-150.117 26.328-66.35 52.948-132.583 79.349-198.904 22.474-56.457 44.817-112.966 67.214-169.454 3.672-9.262 7.36-18.517 10.973-27.801 2.683-6.896 6.873-10.42 15.04-9.99 13.624.715 27.314.25 40.975.184 34.64-.164 69.28-.383 105.318.156 6.741 4.34 4.45 8.704 2.7 13.094-14.379 36.085-28.807 72.15-43.042 108.292-4.727 12.002-8.93 24.21-13.373 36.324"/><path fill="#242424" d="M3842 822.325h231.93c2 0 4-.038 5.998.006 12.875.286 17.6 4.727 17.7 17.413.169 21.326.191 42.655-.01 63.98-.116 12.35-4.565 16.585-17.182 16.59-113.633.05-227.266.144-340.897-.081-19.16-.038-37.08-6.23-54.69-13.513-23.56-9.742-43.655-24.519-59.883-43.654-21.354-25.182-36.064-54.007-39.287-87.6-.949-9.895-1.92-19.842-1.93-29.767-.128-130.96-.041-261.92-.117-392.881-.018-31.686 8.012-61.262 24.844-87.852 28.808-45.51 69.754-72.99 123.915-79.256 7.229-.836 14.542-1.322 21.816-1.328 106.635-.083 213.27-.076 319.904.01 4.588.003 9.283.53 13.738 1.605 6.422 1.55 9.871 5.69 9.903 12.006.12 23.324.151 46.653-.168 69.974-.135 9.908-4.677 14.383-14.556 15.567-2.96.354-5.99.127-8.99.128-107.3.004-214.601.1-321.902-.06-30.063-.044-51.234 13.682-64.566 40.064-5.375 10.636-5.796 22.408-5.843 34.033-.144 34.989-.052 69.979-.052 104.968 0 94.305-.042 188.61.083 282.914.01 7.257.797 14.574 1.904 21.758 5.273 34.218 39.555 55.69 65.37 55.132 30.643-.663 61.31-.156 92.968-.156M1943.197 186.743c13.442-.975 26.032-2.301 38.624-2.322 101.65-.17 203.302.064 304.952-.248 17.666-.054 23.406 5.604 23.001 22.85-.438 18.653-.064 37.325-.11 55.989-.04 15.746-5.018 20.651-21.025 20.654-105.317.017-210.633.067-315.95-.053-16.128-.018-30.94 3.497-43.939 13.363-17.887 13.573-26.917 31.732-27.014 54.046-.202 45.991-.06 91.985-.06 137.978 0 87.986.206 175.973-.101 263.958-.126 36.07 24.926 64.266 58.447 70.145 3.566.625 7.283.531 10.93.532 105.317.026 210.634.02 315.95.022 18.858 0 22.767 3.89 22.772 22.632.005 18.33.043 36.661-.012 54.992-.046 15.256-5.096 20.375-20.292 20.379-109.316.028-218.633.263-327.947-.164-26.376-.104-50.997-8.8-73.647-21.948-35.508-20.61-60.59-50.5-74.602-89.139-6.709-18.502-9.56-37.864-9.55-57.653.076-133.313-.322-266.627.195-399.937.252-64.93 30.116-113.558 85.485-146.845 16.398-9.858 34.205-15.884 53.893-19.23"/><path fill="#232323" d="M715.666 382c.697-19.26.503-37.615 2.414-55.747 1.202-11.401 4.289-23.002 8.716-33.6 24.317-58.217 67.257-94.294 129.659-106.044 9.394-1.769 19.157-2.176 28.75-2.19 104.665-.147 209.33-.092 313.993-.092 2 0 4.007-.104 6 .025 11.484.749 16.315 5.436 16.417 16.842.196 21.998.229 44-.014 65.997-.128 11.573-4.942 16.016-16.62 16.468-2.33.09-4.666.014-7 .014-104.33 0-208.662.074-312.993-.051-26.749-.032-47.318 10.465-61.793 33.266-5.94 9.358-8.776 19.364-8.785 30.089-.115 137.33-.152 274.66.005 411.991.024 20.66 9.755 37.125 25.625 49.608 12.812 10.078 27.503 15.26 44.331 15.217 105.33-.267 210.662-.137 315.993-.133 18.147 0 21.302 3.197 21.308 21.555q.008 27.999-.003 55.999c-.001 2.331.184 4.697-.131 6.99-1.148 8.35-5.158 12.332-13.587 13.354-2.958.359-5.992.112-8.991.112-107.331.003-214.662.117-321.993-.073-28.586-.051-54.884-9.238-79.263-23.465-23.966-13.986-43.224-33.245-57.435-57.137-12.321-20.716-21.54-42.649-22.6-67.22-.716-16.593-1.89-33.189-1.914-49.784-.17-113.664-.09-227.327-.09-341.991m-88.309 149.258c-14.392 27.363-33.432 49.437-58.98 65.937-20.457 13.213-42.663 21.424-66.53 25.216-8.474 1.347-17.16 1.695-25.76 1.851-15.576.283-31.162.08-48.648.08 3.936 4.947 6.71 8.851 9.902 12.38 32.565 36.003 65.302 71.852 97.783 107.931 33.81 37.555 67.36 75.343 101.087 112.972 12.432 13.87 24.929 27.687 37.654 41.287 2.98 3.185 4.478 6.495 4.376 10.653-.144 5.846-2.572 9.252-8.347 10.856-3.134.87-6.511 1.19-9.78 1.2-28.333.09-56.667-.132-84.996.16-8.997.092-15.68-2.828-21.732-9.66-31.758-35.85-63.807-71.444-95.887-107.009-23.614-26.18-47.537-52.08-71.127-78.282-27.811-30.89-55.358-62.018-83.123-92.95-17.993-20.045-36.192-39.907-54.257-59.89-7.803-8.63-15.468-17.384-23.257-26.027-3.956-4.391-5.102-9.368-2.841-14.77 2.25-5.373 7.396-6.23 12.406-6.8 2.633-.3 5.327-.066 7.993-.066 77.997 0 155.995.14 233.991-.066 32.922-.087 59.843-21.504 67.54-51.782 1.05-4.129 1.429-8.528 1.441-12.804.108-37.665-.23-75.333.16-112.995.285-27.369-22.873-56.766-53.228-62.624-6.463-1.247-13.18-1.636-19.78-1.644-84.664-.106-169.327-.067-253.99-.072-18.294-.001-21.091-2.873-21.098-21.594-.006-19-.022-37.999.02-56.998.007-2.985-.045-6.039.533-8.94 1.485-7.444 4.569-10.184 12.063-10.966 2.97-.31 5.99-.178 8.988-.178 86.663-.008 173.326.025 259.99-.021 36.187-.02 68.34 11.688 97.13 33.175 32.102 23.957 52.899 55.65 62.897 94.245 2.637 10.179 4.048 20.936 4.193 31.452.5 36.325-.44 72.676.4 108.988.63 27.279-5.113 52.734-17.186 77.755m2879.585-223.846c4.856 17.253 5.643 34.081 5.486 51.111-.312 33.987-.288 67.98-.037 101.969.247 33.46-10.57 63.422-29.297 90.44-27.735 40.015-66.575 63.054-114.399 70.868-9.764 1.595-19.832 1.593-29.77 1.802-13.644.286-27.298.072-41.7.072 1.508 6.254 6.186 9.644 9.68 13.595 16.296 18.422 32.869 36.6 49.36 54.851 20.96 23.197 41.972 46.345 62.895 69.576 18.883 20.965 37.622 42.06 56.52 63.013 20.716 22.97 41.539 45.844 62.32 68.755 1.566 1.727 3.221 3.375 4.749 5.134 3.878 4.467 4.522 9.672 2.452 14.954-2.11 5.386-6.942 6.765-12.254 6.773-15.662.025-31.324.016-46.986.017-14.662.002-29.33-.226-43.985.092-7.84.17-13.92-1.982-19.31-8.1-18.893-21.449-38.221-42.513-57.383-63.724-21.167-23.43-42.357-46.84-63.492-70.3-17.571-19.503-35.068-39.074-52.616-58.597-17.993-20.018-36.029-39.995-54.009-60.024-28.874-32.164-57.704-64.368-86.585-96.526-4.886-5.44-9.954-10.717-14.9-16.105-3.977-4.331-5.061-9.429-2.82-14.789 2.23-5.336 7.091-6.578 12.385-6.602 2.666-.012 5.332-.01 7.997-.01 77.31 0 154.623.27 231.93-.136 29.692-.156 52.526-13.362 65.663-40.563 3.345-6.923 5.15-15.252 5.253-22.968.519-38.648.2-77.307.25-115.962.036-29.17-28.387-62.032-64.662-62.337-11.995-.1-23.993-.017-35.989-.017-72.312 0-144.624.004-216.935-.003-18.039-.002-21.073-2.972-21.084-20.591-.012-20.327-.067-40.655.02-60.982.059-13.888 3.838-17.731 17.887-17.74 86.641-.062 173.289-.667 259.92.291 33.207.367 63.373 12.236 90.358 32.252 31.045 23.027 51.72 52.932 63.088 90.511"/><path fill="#242424" d="M4283.784 588.905c-.106-22.552-.153-44.21-.106-65.869.032-15.09 4.372-19.365 19.724-19.37 88.3-.023 176.6-.01 264.899-.01h12.023v-11.331c0-94.63.113-189.261-.102-283.891-.039-17.308 3.929-24.397 24.095-24.154 17.658.213 35.32.044 52.98.046 1.998 0 4.015-.154 5.994.048 12.244 1.25 16.149 5.57 16.381 17.975.026 1.332.004 2.665.004 3.998v691.735c0 19.432-2.876 22.26-22.591 22.262-18.993.001-37.985.038-56.978-.012-14.668-.039-19.688-4.932-19.747-19.742-.12-29.654-.036-59.31-.036-88.965V602.344h-10.998q-130.95.001-261.9-.003c-2.998 0-6.02.178-8.99-.124-7.642-.777-13.272-4.099-14.652-13.312"/><path fill="#232323" d="M2760.182 344.783c4.05-12.715 8.253-24.923 12.98-36.925 14.235-36.142 28.663-72.207 43.043-108.292 1.75-4.39 4.04-8.754-1.783-12.911 6.837-.698 14.153-.92 21.47-.966 7.858-.05 13.055 3.589 15.974 11.06 13.275 33.97 26.712 67.876 40.11 101.798a48190 48190 0 0 0 28.5 72.028c21.145 53.29 42.278 106.584 63.481 159.85 12.745 32.019 25.723 63.945 38.405 95.988 20.738 52.398 41.256 104.884 61.99 157.284 13.905 35.145 28.067 70.188 41.982 105.33 1.694 4.278 3.117 8.814 3.698 13.355 1.395 10.888-3.203 16.445-14.062 17.2-5.968.414-11.992.22-17.984.055-12.608-.347-25.208-1.107-37.816-1.24-20.32-.213-40.646-.042-60.969-.063-10.457-.01-11.555-.642-15.43-10.401-16.048-40.405-32.006-80.845-48.008-121.267-20.527-51.85-41.048-103.702-61.603-155.54-20.661-52.104-41.41-104.174-62.028-156.294-16.48-41.66-32.818-83.374-49.25-125.053-.603-1.53-1.53-2.933-2.7-4.996"/><path fill="#242424" d="M1524 599.675c-29.989 0-58.978-.112-87.966.025-50.832.242-93.322-18.825-126.995-56.437-21.74-24.282-34.682-53.378-39.183-85.735-1.776-12.768-1.913-25.812-2.105-38.74-.32-21.654-.178-43.316-.049-64.974.066-11.062 3.188-14.625 14.17-16.875 2.249-.46 4.6-.584 6.905-.589 19.326-.044 38.652-.08 57.977.034 2.931.017 5.952.498 8.768 1.323 7.523 2.202 10.216 5.73 10.754 13.57.16 2.322.059 4.662.059 6.994.003 25.99.24 51.983-.06 77.97-.364 31.502 27.768 63.111 59.382 63.511 4.32.055 8.635.544 12.952.547 54.646.039 109.292.207 163.937-.05 27.618-.13 53.5 7.27 77.156 20.225 36.724 20.112 63.257 50.07 77.941 89.872 6.954 18.847 11.069 38.065 10.789 58.3-.382 27.65-.068 55.31-.107 82.966-.02 14.78-4.677 19.791-19.529 19.994-19.988.274-39.986.282-59.974-.008-13.146-.19-18.428-5.913-18.47-19.282-.09-27.99.01-55.978-.036-83.968-.062-37.882-30.612-68.578-68.346-68.662-25.657-.057-51.313-.01-77.97-.01"/><path fill="#232323" d="M4230.334 550c0 116.61-.141 232.22.136 347.83.048 19.918-3.88 23.11-23.137 22.614-18.312-.471-36.647-.067-54.971-.112-15.344-.038-20.02-4.754-20.024-20.349-.025-87.29-.012-174.581-.012-261.872 0-143.596.079-287.193-.112-430.79-.02-15.8 2.94-22.977 22.969-22.992 18.324-.013 36.649-.059 54.972.05 3.27.02 6.632.357 9.783 1.186 7.457 1.963 9.812 4.968 10.343 12.61.208 2.984.052 5.994.052 8.992zm483.333-163.986c0-7.993-.147-14.993.036-21.986.286-10.986 5.034-16.175 15.714-16.291 22.32-.242 44.646-.216 66.967-.012 10.105.092 14.438 4.5 15.251 14.503.188 2.317.039 4.662.039 6.994v529.756c0 1.999.096 4.004-.023 5.996-.64 10.686-4.924 15.21-15.467 15.306-21.988.199-43.98.191-65.968.006-11.433-.096-16.166-5.076-16.537-16.514-.076-2.33-.012-4.664-.012-6.996zM1352 823.657h370.964c3 0 6.014-.18 8.996.057 10.805.858 15.7 9.705 10.088 19.151-4.4 7.406-9.126 14.832-14.885 21.181-28.44 31.36-63.152 51.324-105.719 56.29-5.911.69-11.878 1.278-17.82 1.282-108.322.076-216.645-.068-324.968.18-17.577.04-22.825-4.556-22.426-21.966.427-18.655.078-37.328.102-55.993.02-16.448 3.63-20.158 19.675-20.175 24.998-.026 49.995-.007 75.993-.007"/><path fill="#222" d="M1642 185.662h101.922c2.332 0 4.669-.096 6.994.027 11.146.592 16.416 5.67 16.685 16.837.29 11.984.068 23.98.068 35.97 0 9.327.226 18.66-.06 27.978-.377 12.284-5.735 17.458-17.854 17.853-1.997.065-3.997.01-5.995.01q-216.334.001-432.667-.001c-2.665 0-5.337-.174-7.992-.02-9.774.563-15.759-9.977-10.567-19.09 3.61-6.337 7.524-12.64 12.188-18.217 24.357-29.128 54.39-49.544 91.942-57.485 10.311-2.18 20.985-3.649 31.501-3.696 70.944-.318 141.89-.166 213.835-.166"/><path fill="#232323" d="M2024 601.674c-17.664 0-34.327.018-50.99-.018-2.655-.006-5.378.077-7.95-.456-7.412-1.537-11.176-5.419-11.264-13.039-.267-22.992-.317-45.992.015-68.983.143-9.92 5.745-14.87 15.877-15.484 2.325-.14 4.664-.037 6.997-.037h309.943c1.333 0 2.666-.022 3.999.003 14.056.27 18.973 5.247 19.028 19.581.075 19.663.06 39.326.006 58.989-.04 15.154-4.357 19.428-19.71 19.433-88.317.024-176.634.011-265.951.011"/><path fill="#242424" d="m988 601.676-99.899-.001c-2.33 0-4.676.16-6.99-.045-9.81-.87-14.526-5.238-14.672-15.21a2348 2348 0 0 1-.002-67.927c.139-9.71 5.215-14.167 15.137-14.794 2.322-.147 4.66-.043 6.991-.043 103.56 0 207.12-.003 310.681.001 18.58 0 22.425 3.942 22.429 22.941.003 18.315.024 36.63-.007 54.944-.027 15.984-4.079 20.118-19.887 20.123-70.927.024-141.854.01-213.781.01"/><path fill="#A20404" d="M4716.25 191.68c2.959-6.886 9.767-6.939 15.272-7.083 21.303-.556 42.634-.513 63.944-.11 11.388.216 16.09 5.477 16.143 16.995.139 30.31.142 60.622 0 90.932-.057 12.241-4.752 17.047-16.868 17.166-21.315.209-42.634.093-63.951.036-5.48-.015-10.53-1.339-14.378-7.59-.212-37.882-.187-74.114-.162-110.346"/><path fill="#332525" d="M4715.562 192.251c.663 35.66.638 71.893.652 109.102-.832-2.08-2.442-5.131-2.46-8.193-.188-30.837-.143-61.675-.059-92.513.007-2.609.768-5.216 1.867-8.396"/><path fill="#FCF8F8" d="M3601.72 1194.81c-10.339-11.884-20.35-23.048-29.965-34.544-3.511-4.197-7.187-6.394-12.786-5.873-4.938.459-9.952.096-16.394.096-.51 14.839.023 29.353-.332 44.552h-23.833c-2.012-6.424-2.625-120.113-.559-133.172 1.129-.185 2.393-.58 3.654-.572 21.653.12 43.33-.309 64.953.593 31.029 1.295 50.353 29.858 40.803 59.328-3.58 11.049-10.52 19.148-21.474 23.518-2.743 1.094-5.497 2.161-9.43 3.706l39.908 45.336c-5.026 1.758-26.401 3.018-29.624 1.539-1.717-.789-2.974-2.58-4.922-4.507m-34.814-63.139c6.29-.235 12.664.098 18.85-.827 12.127-1.814 19.01-10.625 18.094-22.12-.861-10.83-8.843-18.406-20.66-18.81-11.27-.387-22.563-.172-33.845-.117-2.178.01-4.354.498-6.496.762v41.112zm-3197.46 30.704c-4.18-6.573-9.495-8.767-16.504-7.975-4.257.481-8.613.089-14.393.089-.444 14.867.018 29.381-.287 44.569h-23.876c-1.988-6.522-2.54-120.804-.526-133.005.842-.237 1.772-.733 2.7-.728 21.988.11 44.001-.342 65.958.574 31.018 1.294 50.318 29.93 40.723 59.384-3.6 11.049-10.564 19.122-21.518 23.484-2.742 1.092-5.487 2.177-9.345 3.708 7.024 7.985 13.524 15.389 20.038 22.78 6.568 7.45 13.15 14.887 21.49 24.326-11.678.027-21.078.348-30.434-.16-2.068-.113-4.206-2.958-5.92-4.893-9.274-10.476-18.425-21.062-28.106-32.153m29.08-59.24c-3.79-9.645-11.297-13.379-21.19-13.363-9.31.015-18.619-.008-27.929-.013-3.511-.002-7.023 0-10.552 0v41.256c1.705.258 2.959.612 4.213.612 11.636-.002 23.305.477 34.9-.24 16.436-1.016 23.187-10.013 20.558-28.253m657.086 71.221c7.203 8.15 13.934 15.77 20.665 23.39l-.905 2.015c-8.808 0-17.64.345-26.411-.22-2.467-.16-5.204-2.595-7.06-4.665-10.005-11.164-20.004-22.35-29.51-33.936-3.99-4.862-8.188-7.231-14.502-6.547-4.587.496-9.27.097-15.291.097-.559 14.909.016 29.433-.35 44.596h-23.903c-1.959-6.715-2.42-121.639-.43-133.081.845-.223 1.78-.687 2.712-.683 21.99.114 44.005-.345 65.962.584 31.008 1.312 50.277 30.013 40.628 59.452-3.622 11.048-10.614 19.09-21.566 23.445-2.741 1.09-5.476 2.195-9.163 3.674 6.532 7.477 12.593 14.412 19.124 21.879m-22.527-45.556c9.668-7.107 12.919-15.261 9.844-24.69-3.028-9.289-10.022-14.002-21.536-14.306-5.649-.15-11.304-.04-16.957-.043-7.174-.004-14.348-.001-21.601-.001v41.781c16.628-.517 32.807 2.034 50.25-2.74m1768.644 63.758c-9.666-11.12-19.022-21.532-27.97-32.285-3.498-4.205-7.18-6.403-12.782-5.88-4.939.46-9.954.096-16.396.096-.523 14.835.024 29.35-.34 44.55h-23.83c-2.012-6.42-2.621-120.188-.552-133.175 1.13-.184 2.394-.575 3.656-.568 21.654.122 43.334-.309 64.957.596 31.027 1.297 50.347 29.88 40.784 59.344-3.586 11.049-10.532 19.141-21.487 23.51-2.743 1.093-5.494 2.165-9.424 3.713 13.612 15.445 26.69 30.285 39.96 45.34-4.561 1.555-25.93 3.258-28.713 1.72-2.789-1.542-4.952-4.213-7.863-6.96m-21.486-60.893c3.287-.401 6.64-.516 9.849-1.258 10.214-2.36 16.34-10.69 15.788-21.096-.518-9.77-7.37-18.4-17.152-18.959-14.454-.826-28.99-.213-43.715-.213v40.63c1.284.407 1.896.767 2.511.771 10.291.07 20.582.094 32.72.125"/><path fill="#FDF9F9" d="M3941.576 1166.4c9.459 10.709 18.44 20.89 29.166 33.046-11.777.52-21.22.716-30.602-.126-2.084-.187-4.109-3.075-5.821-5.02-9.902-11.242-19.872-22.432-29.445-33.95-3.49-4.2-7.056-6.52-12.694-5.97-4.914.478-9.911.1-15.995.1-1.166 14.818.008 29.334-.728 44.518h-25v-133.215c2.742-.171 5.288-.478 7.833-.465 19.975.095 39.958-.063 59.922.478 19.993.541 35.615 11.569 41.633 28.752 6.455 18.428 2.32 48.384-26.466 56.091-.926.248-1.753.866-3.904 1.963 4.044 4.616 7.834 8.943 12.1 13.799m-13.377-38.793c1.986-2.21 4.412-4.16 5.883-6.672 7.148-12.2.409-28.923-13.417-30.32-14.695-1.484-29.657-.333-44.516-.333v40.96c14.026 0 27.596.178 41.155-.13 3.188-.072 6.338-1.777 10.895-3.505m-2186.372-8.707c-5.49 19.574-8.398 22.62-32.076 33.926l40.963 46.727c-11.523.054-20.621.384-29.68-.076-2.116-.107-4.418-2.613-6.089-4.498-9.93-11.205-19.93-22.365-29.417-33.94-3.95-4.82-8-7.43-14.39-6.666-4.558.545-9.233.105-15.068.105-.893 14.844.006 29.341-.559 44.523h-25.051v-133.187c2.343-.18 4.547-.502 6.751-.497 18.634.044 37.276.543 55.899.143 29.555-.636 53.104 19.565 48.717 53.44m-39.461 11.277c11.699-5.23 16.094-12.901 13.911-24.279-1.876-9.777-9.464-15.795-21.108-16.036-12.886-.267-25.782-.061-38.816-.061v42.36c15.262-.56 29.821-1.095 46.013-1.984"/><path fill="#FCF8F8" d="M4067.856 1065.65c6.284.352 11.7.138 16.88 1.147 28.757 5.6 48.04 26.945 51.053 56.32 1.095 10.679.477 21.276-2.7 31.633-8.185 26.696-29.424 43.427-58.554 44.69-18.927.82-37.919.154-56.808.154-2.28-7.55-3.158-104.713-1.164-133.928 16.674-.036 33.496-.011 51.293-.016m39.955 84.348c3.277-8.644 3.85-17.622 2.22-26.569-2.991-16.424-11.81-28.199-28.689-32.17-13.028-3.066-26.237-1.036-39.245-1.456v84.386c10.15 0 19.75.223 29.337-.05 16.332-.464 28.751-7.393 36.377-24.141"/><path fill="#FDFAFA" d="M3225.584 1180.45c-18.056-23.081-35.675-45.598-54.38-69.504-1.81 11.025-.77 20.471-.954 29.836-.188 9.652-.042 19.31-.042 28.967v29.413h-24.946v-133.386c5.88 0 11.844-.612 17.578.267 2.725.418 5.484 3.301 7.425 5.714 16.48 20.492 32.775 41.134 49.127 61.73 3.09 3.893 6.19 7.78 9.99 12.554 2.961-6.96 1.257-13.475 1.557-19.721.319-6.644.072-13.315.072-19.974v-40.229h25.014v133.155c-3.09.175-5.996.17-8.854.539-4.87.628-8.067-1.406-10.767-5.373-3.176-4.668-6.898-8.966-10.82-13.988m1454.04-113.303c8.315-.812 16.189-.812 24.416-.812v133.44c-3.133 0-5.763-.323-8.284.066-5.345.825-8.488-1.678-11.619-5.735-19.129-24.793-38.494-49.402-57.798-74.06-2.03-2.592-4.17-5.098-8.112-7.386-.006 14.408-.016 28.816-.019 43.224-.003 14.26 0 28.52 0 43.329h-25.002V1065.75c5.818 0 11.398.147 16.967-.046 4.605-.16 6.124 3.52 8.31 6.261 17.039 21.353 33.994 42.773 50.983 64.165 2.437 3.068 4.924 6.095 9.053 11.2 1.109-28.02.028-53.717 1.105-80.183"/><path fill="#FDF9F9" d="M3751.326 1063.037c10.121.278 19.61-.385 28.597 1.437 20.152 4.084 34.977 16.128 43.705 34.672 10.685 22.7 10.383 45.844-.622 68.38-9.603 19.666-25.928 31.128-47.458 33.943-9.762 1.276-20.115 1.247-29.778-.51-36.958-6.72-54.76-37.95-52.779-72.485.396-6.9 1.613-14.002 3.897-20.503 8.921-25.392 26.56-40.8 54.438-44.934m34.561 110.312c21.444-12.657 27.047-49.532 9.993-72.116-4.971-6.583-11.365-11.161-19.344-13.414-23.72-6.697-50.468 1.863-57.098 32.801-1.235 5.765-1.543 11.942-1.054 17.827 2.021 24.294 17.231 39.363 41.045 40.867 8.75.552 17.25-1.056 26.458-5.965m-300.151-107.699h11.18v24.55h-74.294v29.819c11.402.667 23.252.182 35.069.271 11.907.09 23.815.02 36.184.02v23.926h-71.432V1174h74.263v25.067h-99.873V1065.65zM2204.22 1177.938v-111.537h100.525v24.126h-74.298v29.465h71.207v24.225h-70.991v30.103h74.185v24.909H2204.56c-.112-6.642-.226-13.47-.34-21.29m644-29.939v-82.31c33.602-.088 66.708-.015 100.508-.044v24.853h-74.266v29.466h71.176v24.224h-70.958v30.097h74.153v24.925h-100.337c-.09-8.225-.22-16.726-.267-25.228-.046-8.328-.01-16.655-.01-25.983m1653.958 28.541c14.274 3.003 27.231 2.349 39.34-5.051 3.415-2.087 5.401-4.48 5.147-8.792-.33-5.61-.08-11.254-.08-17.926h-33.646v-23.009c18.623-.23 37.36-.068 56.697-.099.21 3.2.511 5.754.52 8.31.048 13.319-.403 26.658.198 39.95.308 6.806-2.49 11.021-7.044 15.448-25.377 24.673-72.123 19.974-92.887 4.051-13.337-10.227-21.187-23.905-23.747-40.277-2.5-15.995-1.505-31.855 5.157-46.999 11.33-25.756 31.36-38.693 59.104-40.446 21.025-1.33 39.305 4.928 55.748 20.244l-15.483 16.228c-2.284-1.55-4.349-3.017-6.476-4.386-17.11-11.009-34.828-12.882-52.687-2.31-15.69 9.288-24.322 30.227-21.223 49.472 2.909 18.061 12.218 30.623 31.362 35.592"/><path fill="#FEFBFB" d="M515.977 1199.767h-72.668c-2.4-8.085-3.288-97.891-1.407-133.38h99.708v24.002c-24.222.209-48.68-.024-74.395.136-.724 9.741-.521 19.17-.027 29.454h71.702v23.999h-71.54c-.983 10.22-.517 19.64-.259 30.075h74.427v25.714zm273.7-62.044c.773 6.257-2.352 6.83-6.595 6.798-16.981-.129-33.964-.052-50.947-.051h-14.598v29.898h74.148v24.89h-99.519v-133.032h99.267v24.027h-73.958v30.12h72.203zm3404.535 6.747H4177.4c-1.149 9.916-.381 19.378-.481 29.812h74.72v24.938h-99.422v-132.948h99.512v23.87h-74.208v30.114h71.499v24.214z"/><path fill="#FCF7F7" d="M1218.785 1154v-87.597h25.198v55.297h65.888v-55.487h25.377v132.933h-24.587v-52h-66.359v52.22h-24.285c-2.458-7.281-.892-14.912-1.172-22.377-.275-7.32-.06-14.659-.06-22.99"/><path fill="#FDF9F9" d="M945.214 1197.067c-1.398 1.42-2.99 2.57-4.614 2.618-6.972.206-13.953.088-21.71.088l-11.877-24.966h-69.667l-11.659 24.454h-27.63l59.922-133.272h28.433c19.408 43.16 39 86.732 58.802 131.078m-55.069-62.157-17.98-40.871-24.443 55.697h48.81c-2.17-5.04-3.971-9.227-6.387-14.826m628.743-42.083c4.17-9.165 7.981-17.664 12.003-26.634h28.614l59.812 132.984h-27.77c-3.696-7.822-7.63-16.155-11.544-24.44h-69.446l-12.027 24.623h-27.445c16.005-35.715 31.724-70.79 47.803-106.533m36.004 23.28-9.88-21.95-24.277 55.82h48.83c-4.894-11.375-9.44-21.945-14.673-33.87"/><path fill="#FCF8F8" d="M641.048 1173.288c10.944-12.547 8.317-23.714-6.587-28.922-6.216-2.172-12.974-2.768-19.46-4.199-9.08-2.003-18.426-3.293-27.145-6.35-19.654-6.889-28.7-26.613-21.929-46.052 2.864-8.22 8.13-14.574 15.801-18.583 22.067-11.532 44.672-11.991 67.351-2.087 8.755 3.823 15.252 10.436 19.762 20.119l-19.388 10.163c-12.177-12.92-26.598-17.134-43.14-13.48-4.078.902-8.187 2.864-11.61 5.287-7.424 5.256-7.857 19.923 4.037 22.856 8.375 2.065 16.823 3.836 25.216 5.83 8.715 2.07 17.701 3.451 26.039 6.557 14.45 5.383 22.367 16.486 23.246 31.929.876 15.397-4.333 28.385-18.038 36.454-5.915 3.482-12.628 6.217-19.328 7.638-16.171 3.427-32.419 3.15-48.27-2.31-14.053-4.841-23.581-14.35-29.523-28.941l20.283-10.464c16.978 21.114 38.786 26.278 62.683 14.555m3641.251-11.438c2.5-1.155 4.296-2.005 6.92-3.247 6.85 14.126 19.339 19.912 33.988 20.368 8.091.252 16.499-1.551 24.34-3.865 6.43-1.896 10.036-7.472 10.332-14.536.308-7.325-3.66-12.364-9.994-14.603-7.453-2.635-15.37-3.972-23.104-5.79-9.053-2.13-18.423-3.336-27.131-6.422-19.255-6.822-28.143-25.985-21.937-45.24 2.565-7.956 7.265-14.38 14.507-18.39 23.192-12.84 46.995-13.316 70.806-1.964 7.92 3.776 13.987 10.01 17.637 19.177l-19.059 9.936c-7.93-8.188-17.255-14.063-28.663-14.24-7.149-.11-14.576 1.067-21.426 3.15-6.446 1.961-10.172 7.276-9.966 14.567.207 7.376 5.016 10.46 11.315 11.953 7.748 1.837 15.567 3.371 23.319 5.194 8.72 2.051 17.706 3.464 26.027 6.608 14.437 5.453 22.245 16.642 23.049 32.081.78 14.98-4.3 27.562-17.376 35.878-4.168 2.651-8.75 5.003-13.468 6.378-18.362 5.35-36.832 5.3-55.021-.82-14.05-4.727-23.582-14.33-29.164-28.749 4.67-2.488 9.019-4.804 14.069-7.425"/><path fill="#FDFBFB" d="M1940.024 1122.322h43.422V1066.2h24.732v133.04h-23.649c-2.196-8.23-.682-16.828-.95-25.293-.272-8.62-.06-17.254-.06-25.719-7.399-2.135-51.387-2.64-65.74-.756v51.74h-25.176v-132.945h25.017v56.054z"/><path fill="#FDFAFA" d="M2669.732 1119.987v-53.616h23.96c.254.347.957.86.956 1.373-.065 27.646.738 55.335-.554 82.926-1.48 31.611-23.206 51.28-54.787 51.593-5.963.059-12.088-.038-17.875-1.288-26.878-5.804-41.864-23.783-44.64-52.93-.283-2.978-.243-5.993-.245-8.991-.018-23.955-.01-47.91-.01-72.463 8.583-1.765 16.66-.711 25.638-.797v10.518c.002 21.333-.019 42.665.026 63.998.007 3.322.039 6.684.52 9.96 4.237 28.87 30.558 32.754 47.232 26.758 10.235-3.68 16.57-11.684 17.976-22.212 1.49-11.159 1.274-22.545 1.803-34.83"/><path fill="#FCF8F8" d="M1152.165 1062.317c20.41-.015 37.213 6.484 51.631 20.612l-16.7 16.31c-13.704-11.26-29.235-15.297-46.461-10.947-9.283 2.345-17.12 7.098-22.917 14.99-13.753 18.723-12.459 46.747 2.999 62.694 15.7 16.198 43.177 16.183 67.656-.65 2.596 2.513 5.41 5.178 8.156 7.91 2.795 2.782 5.525 5.628 8.69 8.86-9.919 11.086-22.076 16.858-35.66 19.134-13.865 2.323-27.84 1.976-41.49-2.384-22.13-7.069-35.925-22.159-42.181-44.19-4.874-17.16-4.437-34.421 2.583-50.886 11.706-27.454 33.638-40.084 63.694-41.453m603.269 78.427c-1.452-12.659.195-24.097 4.326-35.175 19.437-52.127 87.855-53.904 114.822-23.296l-16.192 16.464c-12.586-10.26-27.368-14.541-44.074-10.805-9.393 2.101-17.458 6.399-23.56 13.982-14.614 18.162-13.927 47.018 1.478 63.542 15.528 16.656 42.497 16.845 67.041.804l17.664 16.22c-9.847 10.766-22.03 16.578-35.683 18.811-13.543 2.215-27.26 2.066-40.533-2.25-27.828-9.049-41.93-29.003-45.289-58.297m565.38-10.33c.9-12.605 3.565-23.77 9.271-34.25 22.938-42.122 85.271-43.042 111.086-13.088l-15.595 16.064c-26.425-16.594-52.644-15.826-67.774 1.535-15.208 17.451-15.504 46.172-.655 63.577 15.144 17.75 41.71 18.39 68.884 1.74l16.829 16.345c-9.584 11.079-22.089 16.732-35.974 19.01-13.203 2.168-26.595 1.917-39.579-2.081-25.837-7.957-40.19-26.054-45.139-52.086-.988-5.2-.953-10.596-1.354-16.766"/><path fill="#FCF9F9" d="M3301.597 1088.484h-30.306v-22.081h109.883v21.976h-41.694v110.77h-25.42v-110.665zM2518 1065.65h39.313v22.396h-41.634c-.773 13.11-.298 25.289-.383 37.437-.085 11.997-.019 23.996-.019 35.994v37.573h-25.143v-110.309h-42.89v-23.091zm-330.514 22.57c-13.527.205-26.114.205-40.053.205-.304 12.857-.115 25.02-.149 37.173-.033 11.975-.007 23.95-.007 35.925v37.517H2121.9c-.526-36.095.021-72.51-.31-110.067h-42.23v-22.763h111.065c-.705 7.69-1.352 14.749-2.938 22.01"/><path fill="#FBF6F6" d="M3645.906 1142v-75.914h25.09v133.022h-25.026c-.021-9.235-.05-18.714-.062-28.194-.01-9.305-.002-18.61-.002-28.914m781.685-30v87.158h-24.955V1066.41h24.955zm-1308 38v49.202h-24.999v-132.836h25zm-1083.319-84.339c7.26-.018 13.556-.018 20.583-.018v133.18c-7.76 2.018-15.833.666-24.49.825-.185-3.007-.44-5.242-.442-7.478-.024-39.554-.063-79.108.08-118.661.01-2.779-2.164-7.104 4.27-7.848"/><path fill="#FBF5F5" d="M1405.367 1090.02v-25.202h9.929v157.122l-9.929.931zm1609.693-24.639c3.177-.688 5.757-.688 8.945-.688v157.205h-9.559c-.12-2.324-.305-4.253-.306-6.181q-.022-72.84.005-145.681c0-1.322.207-2.645.914-4.655"/><path fill="#A70707" d="M3565.934 1131.671h-23.086v-41.112c2.142-.264 4.318-.752 6.496-.762 11.282-.055 22.575-.27 33.846.116 11.816.405 19.798 7.982 20.66 18.811.914 11.495-5.968 20.306-18.095 22.12-6.186.925-12.56.592-19.821.827M398.83 1103.87c2.324 17.504-4.427 26.501-20.864 27.517-11.594.717-23.263.238-34.9.24-1.253 0-2.507-.354-4.212-.612v-41.256c3.529 0 7.04-.002 10.552 0 9.31.005 18.62.028 27.93.013 9.892-.016 17.398 3.718 21.494 14.098m633.55 25.3c-16.739 4.404-32.918 1.853-49.546 2.37v-41.781c7.253 0 14.427-.003 21.601 0 5.653.003 11.308-.106 16.957.044 11.514.304 18.508 5.017 21.536 14.306 3.075 9.429-.176 17.583-10.549 25.06m1746.941 2.499c-11.215-.033-21.506-.058-31.797-.127-.615-.004-1.227-.364-2.51-.77v-40.631c14.723 0 29.26-.613 43.714.213 9.782.56 16.634 9.189 17.152 18.96.552 10.405-5.574 18.735-15.788 21.095-3.209.742-6.562.857-10.772 1.26"/><path fill="#A60404" d="M3927.503 1127.995c-3.862 1.34-7.012 3.046-10.2 3.118-13.559.308-27.129.13-41.155.13v-40.96c14.86 0 29.82-1.15 44.516.333 13.826 1.397 20.565 18.12 13.417 30.32-1.47 2.511-3.897 4.462-6.578 7.059m-2225.954 2.36c-15.376.712-29.935 1.247-45.197 1.807v-42.36c13.034 0 25.93-.206 38.816.06 11.645.242 19.232 6.26 21.108 16.037 2.183 11.378-2.212 19.05-14.727 24.456"/><path fill="#A60202" d="M4107.52 1150.736c-7.335 16.01-19.754 22.939-36.086 23.403-9.587.273-19.187.05-29.337.05v-84.386c13.008.42 26.217-1.61 39.245 1.456 16.878 3.971 25.698 15.746 28.689 32.17 1.63 8.947 1.057 17.925-2.51 27.307"/><path fill="#A60404" d="M3785.21 1173.698c-8.53 4.56-17.03 6.168-25.781 5.616-23.814-1.504-39.024-16.573-41.045-40.867-.49-5.885-.18-12.062 1.054-17.827 6.63-30.938 33.378-39.498 57.098-32.8 7.98 2.252 14.373 6.83 19.344 13.413 17.054 22.584 11.45 59.459-10.67 72.465"/><path fill="#A70707" d="M890.452 1135.616c2.109 4.893 3.91 9.08 6.08 14.12h-48.81l24.443-55.697c6.625 15.06 12.303 27.965 18.287 41.577m664.783-18.832c4.89 11.248 9.436 21.818 14.33 33.193h-48.83l24.277-55.82a5712 5712 0 0 0 10.223 22.627"/></svg>